<svg width="33" height="43" viewBox="0 0 33 43" fill="none" xmlns="http://www.w3.org/2000/svg">
<path id="Vector" d="M19.5748 14.6806C18.3673 16.7869 17.2648 18.6563 16.2411 20.552C16.0948 20.8925 15.8405 21.1751 15.5178 21.356C15.1951 21.5369 14.8219 21.606 14.4561 21.5525C13.1436 21.5525 11.8311 21.5525 10.2298 21.5525C10.5186 20.9996 10.6761 20.6047 10.9123 20.2361C14.5611 13.8644 18.2361 7.51909 21.8586 1.14745C22.0251 0.76828 22.3092 0.453211 22.6687 0.249194C23.0282 0.0451781 23.4438 -0.036864 23.8536 0.0152953C25.1136 0.0152953 26.4786 0.0152953 27.8961 0.0152953C27.6336 0.568207 27.4498 0.989468 27.2398 1.35808C25.7961 3.85934 24.4048 6.36061 22.9086 8.80922C22.68 9.12744 22.5571 9.50969 22.5571 9.90188C22.5571 10.2941 22.68 10.6763 22.9086 10.9945C25.5336 15.3388 28.0011 19.6831 30.4423 24.1591C31.3135 25.7103 31.8444 27.4303 31.9996 29.2039C32.1547 30.9775 31.9305 32.7639 31.342 34.4436C30.7534 36.1233 29.8141 37.6576 28.5868 38.9439C27.3595 40.2302 25.8725 41.2389 24.2253 41.9024C22.5781 42.5659 20.8086 42.869 19.0352 42.7914C17.2618 42.7138 15.5254 42.2574 13.942 41.4525C12.3587 40.6477 10.9649 39.513 9.85392 38.1244C8.74293 36.7359 7.94036 35.1253 7.49984 33.4006C7.36859 32.9004 7.26359 32.4001 7.07983 31.6629C5.37359 31.6629 3.61484 31.6629 1.82983 31.6629C0.779835 31.6629 0.464844 31.3469 0.464844 30.2938C0.464844 26.9236 0.464829 26.9237 3.77233 26.9237C8.52358 26.9237 13.2486 26.9237 17.9998 26.9237C19.0498 26.9237 19.3648 27.2396 19.3648 28.2928C19.3648 31.6629 19.3648 31.6629 16.0836 31.6629H12.1461C12.3445 33.0671 12.9467 34.3829 13.8792 35.4491C14.8117 36.5153 16.0338 37.2857 17.3961 37.6659C18.8745 38.1105 20.4524 38.0969 21.923 37.6272C23.3937 37.1574 24.6887 36.2532 25.6386 35.033C26.562 33.9322 27.1376 32.5805 27.2919 31.1502C27.4461 29.72 27.1722 28.276 26.5048 27.0026C24.4048 22.9216 21.9898 19.1039 19.5486 14.7333" fill="#3087C8"/>
</svg>
