<svg width="24" height="32" viewBox="0 0 24 32" fill="none" xmlns="http://www.w3.org/2000/svg">
<path id="Vector" d="M13.7411 8.02473C19.5161 8.02473 24.0048 12.527 24.0048 19.6359C24.0048 26.7447 19.5161 31.3523 13.7411 31.3523C12.3101 31.403 10.8883 31.1034 9.59862 30.4796C8.3089 29.8557 7.18999 28.9263 6.33858 27.7716V30.9837H0.642334V0.810547H6.33858V11.7371C7.1749 10.5611 8.28877 9.61132 9.58056 8.97267C10.8723 8.33402 12.3018 8.02642 13.7411 8.07739M12.2448 13.0536C10.7055 13.3309 9.31243 14.1421 8.30907 15.3453C7.30571 16.5485 6.75597 18.0672 6.75597 19.6359C6.75597 21.2045 7.30571 22.7232 8.30907 23.9264C9.31243 25.1297 10.7055 25.9409 12.2448 26.2181C13.0725 26.1953 13.887 26.0048 14.6394 25.6582C15.3918 25.3115 16.0666 24.8159 16.6232 24.2011C17.1798 23.5863 17.6067 22.8649 17.8783 22.0804C18.1499 21.2959 18.2605 20.4644 18.2036 19.6359C18.2762 18.8054 18.1763 17.9688 17.9102 17.179C17.6441 16.3892 17.2176 15.6633 16.6576 15.0472C16.0976 14.4311 15.4164 13.9382 14.6568 13.5996C13.8973 13.261 13.076 13.084 12.2448 13.0799" fill="#3087C8"/>
</svg>
