<svg width="61" height="61" viewBox="0 0 61 61" fill="none" xmlns="http://www.w3.org/2000/svg">
<g id="_1" clip-path="url(#clip0_12_424)">
<path id="Vector" d="M60.3509 60.9815H0.649131C0.47697 60.9815 0.311855 60.9131 0.190119 60.7913C0.0683831 60.6696 0 60.5045 0 60.3323V0.649134C0 0.476973 0.0683831 0.311862 0.190119 0.190126C0.311855 0.0683902 0.47697 0 0.649131 0H60.3509C60.523 0 60.6881 0.0683902 60.8099 0.190126C60.9316 0.311862 61 0.476973 61 0.649134V60.3323C61 60.5045 60.9316 60.6696 60.8099 60.7913C60.6881 60.9131 60.523 60.9815 60.3509 60.9815ZM1.29826 59.6832H59.7017V1.35391H1.29826V59.6832Z" fill="black"/>
<path id="Vector_2" d="M60.3509 11.6658H0.649131C0.47697 11.6658 0.311855 11.5974 0.190119 11.4757C0.0683831 11.354 0 11.1888 0 11.0167C0 10.8445 0.0683831 10.6794 0.190119 10.5577C0.311855 10.4359 0.47697 10.3676 0.649131 10.3676H60.3509C60.523 10.3676 60.6881 10.4359 60.8099 10.5577C60.9316 10.6794 61 10.8445 61 11.0167C61 11.1888 60.9316 11.354 60.8099 11.4757C60.6881 11.5974 60.523 11.6658 60.3509 11.6658Z" fill="black"/>
<path id="Vector_3" d="M18.8248 11.6659C18.7389 11.6685 18.6533 11.6534 18.5734 11.6217C18.4935 11.59 18.4209 11.5423 18.3601 11.4815C18.2993 11.4207 18.2516 11.3481 18.2199 11.2682C18.1882 11.1883 18.1731 11.1027 18.1757 11.0168V0.649171C18.1731 0.56323 18.1882 0.477668 18.2199 0.397751C18.2516 0.317833 18.2993 0.245247 18.3601 0.18445C18.4209 0.123653 18.4935 0.0759303 18.5734 0.0442168C18.6533 0.0125034 18.7389 -0.00253011 18.8248 3.70422e-05C18.997 3.70422e-05 19.1621 0.0684272 19.2838 0.190163C19.4056 0.3119 19.474 0.47701 19.474 0.649171V11.0168C19.474 11.1889 19.4056 11.354 19.2838 11.4758C19.1621 11.5975 18.997 11.6659 18.8248 11.6659Z" fill="black"/>
<path id="Vector_4" d="M60.3508 6.47283H33.0872C32.9151 6.47283 32.75 6.40444 32.6282 6.2827C32.5065 6.16097 32.4381 5.99586 32.4381 5.82369C32.4381 5.73845 32.4549 5.65404 32.4875 5.57528C32.5201 5.49652 32.568 5.42496 32.6282 5.36469C32.6885 5.30441 32.7601 5.25659 32.8388 5.22397C32.9176 5.19135 33.002 5.17456 33.0872 5.17456H60.3508C60.4361 5.17456 60.5205 5.19135 60.5993 5.22397C60.678 5.25659 60.7496 5.30441 60.8099 5.36469C60.8701 5.42496 60.918 5.49652 60.9506 5.57528C60.9832 5.65404 61 5.73845 61 5.82369C61 5.99586 60.9316 6.16097 60.8099 6.2827C60.6881 6.40444 60.523 6.47283 60.3508 6.47283Z" fill="black"/>
<path id="Vector_5" d="M60.3508 18.1572H11.0352C10.8631 18.1572 10.698 18.0888 10.5762 17.967C10.4545 17.8453 10.3861 17.6802 10.3861 17.508C10.3861 17.3359 10.4545 17.1707 10.5762 17.049C10.698 16.9273 10.8631 16.8589 11.0352 16.8589H60.3508C60.4361 16.8589 60.5205 16.8757 60.5993 16.9083C60.678 16.9409 60.7496 16.9887 60.8098 17.049C60.8701 17.1093 60.9179 17.1809 60.9506 17.2596C60.9832 17.3384 61 17.4228 61 17.508C61 17.6802 60.9316 17.8453 60.8098 17.967C60.6881 18.0888 60.523 18.1572 60.3508 18.1572Z" fill="black"/>
<path id="Vector_6" d="M7.14046 18.1572C7.05476 18.1584 6.96966 18.1426 6.89008 18.1108C6.8105 18.079 6.73801 18.0317 6.6768 17.9717C6.56189 17.844 6.49615 17.6797 6.49133 17.508C6.49615 17.3363 6.56189 17.172 6.6768 17.0444C6.80443 16.9294 6.96879 16.8637 7.14046 16.8589C7.31214 16.8637 7.47649 16.9294 7.60413 17.0444C7.71904 17.172 7.78478 17.3363 7.78959 17.508C7.78478 17.6797 7.71904 17.844 7.60413 17.9717C7.54292 18.0317 7.47043 18.079 7.39085 18.1108C7.31127 18.1426 7.22617 18.1584 7.14046 18.1572Z" fill="black"/>
<path id="Vector_7" d="M29.1925 6.47275C29.1093 6.47591 29.0264 6.46096 28.9496 6.42894C28.8727 6.39692 28.8037 6.34858 28.7474 6.28728C28.6823 6.22904 28.6303 6.15753 28.5952 6.07755C28.56 5.99757 28.5423 5.91099 28.5434 5.82362C28.5438 5.73918 28.5622 5.6558 28.5973 5.57904C28.6325 5.50228 28.6837 5.43391 28.7474 5.3785C28.8028 5.31479 28.8712 5.26363 28.9479 5.22845C29.0247 5.19327 29.1081 5.17487 29.1925 5.17448C29.2799 5.17342 29.3665 5.19108 29.4464 5.22627C29.5264 5.26146 29.5979 5.31337 29.6562 5.3785C29.7175 5.43484 29.7658 5.50382 29.7978 5.58067C29.8299 5.65753 29.8448 5.74042 29.8416 5.82362C29.8463 5.90974 29.8321 5.99583 29.8001 6.07591C29.768 6.15598 29.7189 6.22812 29.6562 6.28728C29.597 6.35003 29.5249 6.39913 29.4448 6.43116C29.3647 6.46319 29.2786 6.47738 29.1925 6.47275Z" fill="black"/>
<path id="Vector_8" d="M11.0353 55.7884H10.8869C10.7223 55.7446 10.5807 55.6395 10.4911 55.4947C10.4015 55.3499 10.3705 55.1763 10.4047 55.0095C11.7237 48.0952 14.6882 41.6001 19.0474 36.0733C22.2624 32.193 26.366 29.1455 31.01 27.1895C35.7807 25.1505 40.9691 24.2794 46.1441 24.6486C46.3147 24.6717 46.4698 24.7599 46.5769 24.8947C46.684 25.0295 46.735 25.2005 46.719 25.3719C46.6959 25.5425 46.6077 25.6976 46.4729 25.8047C46.3381 25.9118 46.1672 25.9628 45.9957 25.9468C41.0241 25.6141 36.0437 26.4526 31.4551 28.395C21.273 32.7349 14.6148 41.7672 11.6658 55.2877C11.6324 55.4299 11.552 55.5568 11.4376 55.6476C11.3231 55.7385 11.1814 55.7881 11.0353 55.7884Z" fill="black"/>
<path id="Vector_9" d="M43.6217 29.3593C43.5162 29.3602 43.4121 29.3353 43.3184 29.2868C43.2247 29.2383 43.1442 29.1677 43.0839 29.0811C43.0351 29.0122 43.0006 28.9341 42.9826 28.8516C42.9645 28.769 42.9632 28.6837 42.9788 28.6007C42.9944 28.5176 43.0265 28.4386 43.0732 28.3682C43.1199 28.2978 43.1803 28.2375 43.2508 28.1909L46.5706 25.9097L44.2894 22.5713C44.2406 22.5023 44.2061 22.4242 44.1881 22.3417C44.1701 22.2592 44.1688 22.1738 44.1844 22.0908C44.1999 22.0078 44.232 21.9287 44.2787 21.8583C44.3255 21.7879 44.3858 21.7276 44.4563 21.681C44.5268 21.6318 44.6063 21.597 44.6903 21.5787C44.7743 21.5604 44.8611 21.559 44.9456 21.5745C45.0302 21.5901 45.1108 21.6222 45.1828 21.6692C45.2548 21.7161 45.3168 21.7769 45.3651 21.8479L47.9987 25.7056C48.0532 25.772 48.0916 25.85 48.1109 25.9337C48.1302 26.0174 48.1299 26.1043 48.11 26.1879C48.0935 26.2711 48.0603 26.3501 48.0125 26.4202C47.9647 26.4903 47.9033 26.5501 47.8318 26.5959L43.9927 29.1739C43.8898 29.2706 43.7608 29.335 43.6217 29.3593Z" fill="black"/>
<path id="Vector_10" d="M60.3509 54.4901H20.1232C20.0388 54.4926 19.9548 54.4781 19.8762 54.4475C19.7975 54.4169 19.7258 54.3709 19.6652 54.3121C19.6047 54.2533 19.5566 54.1829 19.5237 54.1052C19.4909 54.0274 19.474 53.9439 19.474 53.8595C19.4715 53.7736 19.4865 53.688 19.5182 53.6081C19.5499 53.5282 19.5976 53.4556 19.6584 53.3948C19.7192 53.334 19.7918 53.2863 19.8717 53.2545C19.9517 53.2228 20.0372 53.2078 20.1232 53.2104H60.3509C60.5231 53.2104 60.6882 53.2788 60.8099 53.4005C60.9316 53.5222 61 53.6873 61 53.8595C60.9952 54.0284 60.9247 54.1888 60.8035 54.3066C60.6822 54.4243 60.5199 54.4902 60.3509 54.4901Z" fill="black"/>
<path id="Vector_11" d="M27.9869 49.3156C27.1261 49.3156 26.3005 48.9736 25.6918 48.3649C25.0832 47.7562 24.7412 46.9307 24.7412 46.0699C24.7412 45.2091 25.0832 44.3835 25.6918 43.7749C26.3005 43.1662 27.1261 42.8242 27.9869 42.8242C28.4122 42.8242 28.8334 42.9083 29.2261 43.0716C29.6189 43.235 29.9755 43.4743 30.2754 43.776C30.5753 44.0776 30.8126 44.4355 30.9737 44.8292C31.1348 45.2229 31.2164 45.6445 31.214 46.0699C31.214 46.9275 30.8746 47.7502 30.2699 48.3584C29.6653 48.9665 28.8445 49.3107 27.9869 49.3156ZM27.9869 44.1225C27.495 44.1225 27.0232 44.3179 26.6754 44.6657C26.3276 45.0135 26.1322 45.4853 26.1322 45.9772C26.1322 46.469 26.3276 46.9408 26.6754 47.2886C27.0232 47.6364 27.495 47.8318 27.9869 47.8318C28.4788 47.8318 28.9505 47.6364 29.2983 47.2886C29.6461 46.9408 29.8415 46.469 29.8415 45.9772C29.8415 45.4853 29.6461 45.0135 29.2983 44.6657C28.9505 44.3179 28.4788 44.1225 27.9869 44.1225Z" fill="black"/>
<path id="Vector_12" d="M49.9648 40.3019C49.1055 40.297 48.2828 39.9535 47.6751 39.3459C47.0675 38.7382 46.724 37.9155 46.7191 37.0562C46.7191 36.1954 47.0611 35.3699 47.6698 34.7612C48.2784 34.1525 49.104 33.8105 49.9648 33.8105C50.8256 33.8105 51.6511 34.1525 52.2598 34.7612C52.8685 35.3699 53.2105 36.1954 53.2105 37.0562C53.2105 37.917 52.8685 38.7426 52.2598 39.3513C51.6511 39.9599 50.8256 40.3019 49.9648 40.3019ZM49.9648 35.1088C49.7132 35.1085 49.4642 35.1594 49.2329 35.2583C49.0017 35.3573 48.7929 35.5022 48.6194 35.6844C48.4459 35.8666 48.3113 36.0821 48.2238 36.318C48.1362 36.5538 48.0975 36.805 48.1101 37.0562C48.1101 37.5481 48.3055 38.0198 48.6533 38.3677C49.0012 38.7155 49.4729 38.9109 49.9648 38.9109C50.216 38.9235 50.4672 38.8848 50.703 38.7972C50.9389 38.7097 51.1544 38.5751 51.3366 38.4016C51.5188 38.2281 51.6637 38.0193 51.7627 37.7881C51.8616 37.5568 51.9125 37.3078 51.9122 37.0562C51.9366 36.791 51.9035 36.5236 51.8153 36.2723C51.7271 36.021 51.5858 35.7917 51.401 35.5999C51.2162 35.408 50.9923 35.2583 50.7445 35.1607C50.4967 35.0632 50.2307 35.0202 49.9648 35.0346V35.1088Z" fill="black"/>
<path id="Vector_13" d="M11.0352 29.8416C10.1744 29.8416 9.34887 29.4996 8.74019 28.8909C8.13151 28.2822 7.78955 27.4567 7.78955 26.5959C7.78955 25.7351 8.13151 24.9095 8.74019 24.3009C9.34887 23.6922 10.1744 23.3502 11.0352 23.3502C11.8945 23.3551 12.7172 23.6986 13.3249 24.3062C13.9325 24.9139 14.276 25.7366 14.2809 26.5959C14.2809 27.4567 13.9389 28.2822 13.3302 28.8909C12.7216 29.4996 11.896 29.8416 11.0352 29.8416ZM11.0352 24.6485C10.5433 24.6485 10.0716 24.8439 9.72377 25.1917C9.37595 25.5395 9.18055 26.0113 9.18055 26.5032C9.18055 26.995 9.37595 27.4668 9.72377 27.8146C10.0716 28.1624 10.5433 28.3578 11.0352 28.3578C11.5271 28.3578 11.9988 28.1624 12.3467 27.8146C12.6945 27.4668 12.8899 26.995 12.8899 26.5032C12.8899 26.0113 12.6945 25.5395 12.3467 25.1917C11.9988 24.8439 11.5271 24.6485 11.0352 24.6485Z" fill="black"/>
<path id="Vector_14" d="M7.14048 4.54395H4.54395V7.14048H7.14048V4.54395Z" fill="black"/>
<path id="Vector_15" d="M11.0353 4.54395H8.43872V7.14048H11.0353V4.54395Z" fill="black"/>
<path id="Vector_16" d="M14.93 4.54395H12.3335V7.14048H14.93V4.54395Z" fill="black"/>
</g>
<defs>
<clipPath id="clip0_12_424">
<rect width="61" height="61" fill="white"/>
</clipPath>
</defs>
</svg>
