<svg width="23" height="24" viewBox="0 0 23 24" fill="none" xmlns="http://www.w3.org/2000/svg">
<path id="Vector" d="M11.2387 23.2729C8.26037 23.1307 5.45098 21.8439 3.39336 19.6795C1.33575 17.5151 0.187866 14.6392 0.187866 11.6486C0.187866 8.65796 1.33575 5.7821 3.39336 3.6177C5.45098 1.4533 8.26037 0.166504 11.2387 0.0242935C12.7155 -0.0561712 14.1926 0.177214 15.5733 0.709168C16.954 1.24112 18.207 2.05964 19.2504 3.1111C20.2937 4.16257 21.1038 5.42326 21.6276 6.81059C22.1514 8.19793 22.3771 9.68061 22.2899 11.1615C22.3028 11.8932 22.25 12.6246 22.1324 13.3468H5.72615C5.72593 14.0496 5.86595 14.7452 6.13796 15.3928C6.40996 16.0405 6.80845 16.6269 7.30995 17.1176C7.81144 17.6084 8.4058 17.9935 9.05799 18.2502C9.71017 18.507 10.407 18.6302 11.1074 18.6127C12.0332 18.6801 12.9577 18.4646 13.7589 17.9945C14.5602 17.5245 15.2008 16.8221 15.5962 15.9797H21.7387C21.0598 18.2136 19.66 20.1578 17.7593 21.5066C15.8585 22.8554 13.5648 23.5323 11.2387 23.4309M5.7524 9.52911H16.4099C16.3898 8.86281 16.2372 8.20726 15.961 7.60095C15.6848 6.99465 15.2906 6.44983 14.8015 5.9985C14.3124 5.54718 13.7383 5.19846 13.1129 4.97281C12.4876 4.74717 11.8236 4.64916 11.1599 4.68455C9.83731 4.6803 8.56187 5.17689 7.58853 6.07506C6.6152 6.97322 6.0157 8.20678 5.9099 9.52911" fill="#9F9F9F"/>
</svg>
