<svg width="24" height="35" viewBox="0 0 24 35" fill="none" xmlns="http://www.w3.org/2000/svg">
<path id="Vector" d="M10.6687 0.0243716C12.1163 -0.0204031 13.5524 0.295216 14.8487 0.943034C16.1451 1.59085 17.2612 2.55069 18.0974 3.73678V0.366653H23.8199V23.0623C23.9157 24.5438 23.6918 26.0285 23.1634 27.4152C22.635 28.802 21.8145 30.058 20.758 31.0977C19.7015 32.1374 18.4338 32.9363 17.0414 33.4398C15.6491 33.9433 14.1648 34.1396 12.6899 34.0153C6.36365 34.0153 1.95365 30.8294 1.37615 25.6689H7.0199C7.43323 26.7663 8.20004 27.6938 9.19867 28.3043C10.1973 28.9148 11.3706 29.1734 12.5324 29.0391C13.3117 29.0935 14.0933 28.9728 14.8202 28.6858C15.5471 28.3988 16.2009 27.9528 16.7341 27.3801C17.2673 26.8075 17.6664 26.1227 17.9022 25.3758C18.1381 24.6288 18.2048 23.8384 18.0974 23.0623V19.5342C17.2563 20.7153 16.1392 21.6713 14.844 22.3185C13.5489 22.9658 12.1152 23.2845 10.6687 23.2466C4.94616 23.2466 0.404907 18.5601 0.404907 11.5302C0.404907 4.50032 4.94616 -0.00195312 10.6687 -0.00195312M12.1387 4.97425C11.3 4.98063 10.4719 5.16299 9.70765 5.50958C8.94342 5.85617 8.25996 6.35934 7.70121 6.98673C7.14246 7.61411 6.72079 8.35184 6.46331 9.15246C6.20583 9.95309 6.11823 10.7989 6.20615 11.6355C6.13059 12.4724 6.2265 13.3159 6.48799 14.1142C6.74948 14.9125 7.17102 15.6488 7.72669 16.2776C8.28236 16.9065 8.96041 17.4147 9.71915 17.771C10.4779 18.1273 11.3013 18.3241 12.1387 18.3494C13.7045 18.1054 15.1318 17.3078 16.1627 16.1007C17.1936 14.8936 17.7602 13.3566 17.7602 11.7672C17.7602 10.1777 17.1936 8.64069 16.1627 7.43359C15.1318 6.2265 13.7045 5.42892 12.1387 5.18488" fill="#9F9F9F"/>
</svg>
