<svg width="7" height="33" viewBox="0 0 7 33" fill="none" xmlns="http://www.w3.org/2000/svg">
<path id="Vector" d="M0.00484006 4.36381C-0.0319028 3.66454 0.141207 2.9703 0.501817 2.37071C0.862426 1.77113 1.39397 1.29375 2.02781 1.00023C2.66164 0.706711 3.36865 0.61053 4.05754 0.724108C4.74642 0.837686 5.38553 1.15581 5.89234 1.63739C6.39915 2.11897 6.75037 2.74189 6.90065 3.42571C7.05093 4.10952 6.99337 4.82282 6.7354 5.47349C6.47742 6.12416 6.03089 6.68232 5.45345 7.07587C4.87602 7.46943 4.19422 7.68031 3.49609 7.68128C3.04743 7.70257 2.5991 7.63271 2.17803 7.47589C1.75695 7.31906 1.37182 7.0785 1.04574 6.76865C0.719671 6.45881 0.459386 6.08607 0.280514 5.67282C0.101642 5.25956 0.00787476 4.81431 0.00484006 4.36381ZM0.608589 10.3932H6.27859V32.9046H0.608589V10.3932Z" fill="#9F9F9F"/>
</svg>
