<svg width="38" height="38" viewBox="0 0 38 38" fill="none" xmlns="http://www.w3.org/2000/svg">
<g id="instagram">
<circle id="Ellipse 4" cx="19" cy="19" r="19" transform="rotate(90 19 19)" fill="#3087C8"/>
<path id="ic-instagram" d="M15.332 18.5026C15.332 20.247 16.7556 21.6706 18.5 21.6706C20.2444 21.6706 21.668 20.247 21.668 18.5026C21.668 16.7582 20.2444 15.3346 18.5 15.3346C16.7556 15.3346 15.332 16.7582 15.332 18.5026ZM18.5 9.00095C17.1881 9.00095 15.8881 8.98906 14.5786 9.06274C13.0576 9.13642 11.7077 9.4834 10.5954 10.5957C9.48078 11.7103 9.13617 13.0578 9.0625 14.5788C8.98882 15.8907 9.00071 17.1907 9.00071 18.5002C9.00071 19.8121 8.98882 21.1121 9.0625 22.4216C9.13617 23.9427 9.48316 25.2926 10.5954 26.4048C11.71 27.5195 13.0576 27.8641 14.5786 27.9377C15.8905 28.0114 17.1905 27.9995 18.5 27.9995C19.8095 27.9995 21.1119 28.0114 22.4214 27.9377C23.9424 27.8641 25.2923 27.5171 26.4046 26.4048C27.5192 25.2902 27.8638 23.9427 27.9375 22.4216C28.0112 21.1098 27.9993 19.8098 27.9993 18.5002C27.9993 17.1884 28.0112 15.8884 27.9375 14.5788C27.8638 13.0578 27.5168 11.7079 26.4046 10.5957C25.29 9.48102 23.9424 9.13641 22.4214 9.06274C21.1119 8.98669 19.8119 9.00095 18.5 9.00095ZM23.3744 18.5026C23.3744 21.2001 21.1974 23.377 18.5 23.377C15.8026 23.377 13.6256 21.2001 13.6256 18.5026C13.6256 15.8052 15.8026 13.6282 18.5 13.6282C21.1974 13.6282 23.3744 15.8052 23.3744 18.5026ZM14.5643 13.4286C14.5643 14.0584 14.0557 14.567 13.4259 14.567C12.7961 14.567 12.2876 14.0584 12.2876 13.4286C12.2876 12.7988 12.7961 12.2902 13.4259 12.2902C13.5755 12.29 13.7236 12.3193 13.8618 12.3764C14 12.4336 14.1256 12.5174 14.2313 12.6232C14.3371 12.7289 14.4209 12.8545 14.4781 12.9927C14.5352 13.1309 14.5645 13.279 14.5643 13.4286Z" fill="white"/>
</g>
</svg>
