<svg width="61" height="57" viewBox="0 0 61 57" fill="none" xmlns="http://www.w3.org/2000/svg">
<g id="_1" clip-path="url(#clip0_11_368)">
<path id="Vector" d="M30.5 46.8635C30.3317 46.8635 30.1703 46.7968 30.0512 46.678C29.9322 46.5591 29.8654 46.398 29.8654 46.23V32.0388C29.8654 31.8708 29.9322 31.7096 30.0512 31.5908C30.1703 31.472 30.3317 31.4053 30.5 31.4053C30.6683 31.4053 30.8298 31.472 30.9488 31.5908C31.0678 31.7096 31.1347 31.8708 31.1347 32.0388V46.23C31.1347 46.398 31.0678 46.5591 30.9488 46.678C30.8298 46.7968 30.6683 46.8635 30.5 46.8635Z" fill="black"/>
<path id="Vector_2" d="M30.3731 48.1305C30.2613 48.1305 30.1517 48.1002 30.0559 48.0428C29.96 47.9855 29.8817 47.9032 29.8291 47.8047L21.7054 33.8851C21.643 33.7344 21.643 33.5651 21.7054 33.4145L25.5134 16.9607C25.546 16.8218 25.6247 16.698 25.7365 16.6093C25.8484 16.5206 25.987 16.4722 26.1299 16.4719H35.0152C35.158 16.4722 35.2966 16.5206 35.4085 16.6093C35.5204 16.698 35.599 16.8218 35.6317 16.9607L39.4397 33.2515C39.4936 33.4038 39.4936 33.5699 39.4397 33.7222L31.0621 47.7323C31.0074 47.8653 30.9101 47.9764 30.7855 48.0485C30.6608 48.1205 30.5158 48.1493 30.3731 48.1305ZM22.9203 33.4688L30.3731 46.2481L38.0797 33.3783L34.453 17.739H26.5832L22.9203 33.4688Z" fill="black"/>
<path id="Vector_3" d="M30.3912 32.7265C29.6905 32.7218 29.0199 32.4418 28.5244 31.9472C28.029 31.4526 27.7485 30.7832 27.7438 30.0838C27.7438 29.7367 27.8123 29.3931 27.9453 29.0724C28.0783 28.7518 28.2734 28.4605 28.5192 28.2151C28.765 27.9697 29.0569 27.775 29.3781 27.6422C29.6993 27.5094 30.0435 27.441 30.3912 27.441C30.7389 27.441 31.0832 27.5094 31.4044 27.6422C31.7256 27.775 32.0174 27.9697 32.2632 28.2151C32.5091 28.4605 32.7041 28.7518 32.8371 29.0724C32.9702 29.3931 33.0387 29.7367 33.0387 30.0838C33.0387 30.7847 32.7597 31.4569 32.2632 31.9525C31.7668 32.4481 31.0934 32.7265 30.3912 32.7265ZM30.3912 28.7081C30.0272 28.7128 29.6794 28.8592 29.4219 29.1162C29.1645 29.3732 29.0178 29.7204 29.0131 30.0838C29.0178 30.4472 29.1645 30.7944 29.4219 31.0513C29.6794 31.3083 30.0272 31.4548 30.3912 31.4595C30.7567 31.4595 31.1073 31.3145 31.3657 31.0565C31.6242 30.7986 31.7693 30.4486 31.7693 30.0838C31.7767 29.8986 31.7465 29.7139 31.6805 29.5407C31.6145 29.3674 31.5142 29.2093 31.3854 29.0757C31.2567 28.9422 31.1023 28.836 30.9315 28.7635C30.7606 28.6909 30.5769 28.6537 30.3912 28.6538V28.7081Z" fill="black"/>
<path id="Vector_4" d="M38.7506 17.7208H22.2494C22.0811 17.7208 21.9196 17.6541 21.8006 17.5353C21.6816 17.4164 21.6147 17.2553 21.6147 17.0873V12.0371C21.6147 11.8691 21.6816 11.7079 21.8006 11.5891C21.9196 11.4703 22.0811 11.4036 22.2494 11.4036H38.7506C38.9189 11.4036 39.0803 11.4703 39.1994 11.5891C39.3184 11.7079 39.3853 11.8691 39.3853 12.0371V17.0873C39.3853 17.2553 39.3184 17.4164 39.1994 17.5353C39.0803 17.6541 38.9189 17.7208 38.7506 17.7208ZM22.8841 16.4537H38.1159V12.6706H22.8841V16.4537Z" fill="black"/>
<path id="Vector_5" d="M36.2119 12.6707H24.788C24.6197 12.6707 24.4583 12.6039 24.3392 12.4851C24.2202 12.3663 24.1533 12.2052 24.1533 12.0372V0.633532C24.1533 0.465508 24.2202 0.304375 24.3392 0.185564C24.4583 0.0667536 24.6197 0 24.788 0H36.2119C36.3802 0 36.5416 0.0667536 36.6607 0.185564C36.7797 0.304375 36.8466 0.465508 36.8466 0.633532V12.0372C36.8466 12.2052 36.7797 12.3663 36.6607 12.4851C36.5416 12.6039 36.3802 12.6707 36.2119 12.6707ZM25.4227 11.4036H35.5772V1.26708H25.4227V11.4036Z" fill="black"/>
<path id="Vector_6" d="M5.13169 29.1063C4.96025 29.102 4.79741 29.0305 4.67836 28.9072L0.181317 24.4363C0.069158 24.3158 0.00683594 24.1573 0.00683594 23.9928C0.00683594 23.8283 0.069158 23.6699 0.181317 23.5493L4.67836 19.0603C4.79912 18.9483 4.95781 18.8861 5.12262 18.8861C5.28742 18.8861 5.44612 18.9483 5.56687 19.0603L10.082 23.6761C10.1942 23.7966 10.2565 23.955 10.2565 24.1195C10.2565 24.284 10.1942 24.4425 10.082 24.563L5.58502 29.034C5.44826 29.1137 5.28656 29.1395 5.13169 29.1063ZM1.50506 23.9838L5.13169 27.604L8.75833 23.9838L5.13169 20.3636L1.50506 23.9838Z" fill="black"/>
<path id="Vector_7" d="M55.8683 29.1063C55.7028 29.0992 55.5466 29.0278 55.4331 28.9072L50.9361 24.4363C50.8239 24.3158 50.7616 24.1573 50.7616 23.9928C50.7616 23.8283 50.8239 23.6699 50.9361 23.5493L55.4331 19.0603C55.5539 18.9483 55.7126 18.8861 55.8774 18.8861C56.0422 18.8861 56.2009 18.9483 56.3216 19.0603L60.8549 23.676C60.9671 23.7966 61.0294 23.955 61.0294 24.1195C61.0294 24.284 60.9671 24.4425 60.8549 24.563L56.3579 29.034C56.2106 29.1213 56.0347 29.1473 55.8683 29.1063ZM52.2417 23.9838L55.8683 27.604L59.495 23.9838L55.8683 20.3636L52.2417 23.9838Z" fill="black"/>
<path id="Vector_8" d="M52.7131 54.4477H8.26871C8.10038 54.4477 7.93896 54.381 7.81994 54.2622C7.70092 54.1434 7.63403 53.9822 7.63403 53.8142C7.63403 53.6462 7.70092 53.485 7.81994 53.3662C7.93896 53.2474 8.10038 53.1807 8.26871 53.1807H52.695C52.8633 53.1807 53.0247 53.2474 53.1438 53.3662C53.2628 53.485 53.3296 53.6462 53.3296 53.8142C53.3297 53.9791 53.2653 54.1376 53.1502 54.2559C53.0351 54.3742 52.8783 54.443 52.7131 54.4477Z" fill="black"/>
<path id="Vector_9" d="M5.74825 57C4.90979 56.9952 4.1073 56.6594 3.51611 56.0659C2.92491 55.4723 2.59306 54.6693 2.59307 53.8323C2.59068 53.4172 2.67054 53.0057 2.82804 52.6215C2.98553 52.2373 3.21755 51.8879 3.51077 51.5936C3.80399 51.2992 4.15264 51.0655 4.53663 50.9061C4.92062 50.7467 5.33238 50.6647 5.74825 50.6647C6.58987 50.6647 7.39702 50.9984 7.99213 51.5925C8.58724 52.1865 8.92156 52.9922 8.92156 53.8323C8.92156 54.6725 8.58724 55.4782 7.99213 56.0722C7.39702 56.6663 6.58987 57 5.74825 57ZM5.74825 51.9317C5.26733 51.9317 4.8061 52.1224 4.46604 52.4619C4.12598 52.8014 3.93493 53.2618 3.93493 53.7418C3.92264 53.987 3.96045 54.2322 4.04605 54.4624C4.13166 54.6925 4.26327 54.9029 4.43289 55.0807C4.60252 55.2585 4.8066 55.4 5.03273 55.4965C5.25886 55.5931 5.5023 55.6428 5.74825 55.6424C5.99421 55.6428 6.23765 55.5931 6.46377 55.4965C6.6899 55.4 6.89399 55.2585 7.06361 55.0807C7.23323 54.9029 7.36485 54.6925 7.45045 54.4624C7.53606 54.2322 7.57387 53.987 7.56157 53.7418C7.56157 53.2618 7.37053 52.8014 7.03046 52.4619C6.6904 52.1224 6.22917 51.9317 5.74825 51.9317Z" fill="black"/>
<path id="Vector_10" d="M55.2336 57C54.3951 56.9952 53.5926 56.6594 53.0014 56.0659C52.4102 55.4723 52.0784 54.6693 52.0784 53.8323C52.076 53.4172 52.1559 53.0057 52.3134 52.6215C52.4709 52.2373 52.7029 51.8879 52.9961 51.5936C53.2893 51.2992 53.638 51.0655 54.0219 50.9061C54.4059 50.7467 54.8177 50.6647 55.2336 50.6647C56.0752 50.6647 56.8823 50.9984 57.4775 51.5925C58.0726 52.1865 58.4069 52.9922 58.4069 53.8323C58.4069 54.6725 58.0726 55.4782 57.4775 56.0722C56.8823 56.6663 56.0752 57 55.2336 57ZM55.2336 51.9317C54.7527 51.9317 54.2914 52.1224 53.9514 52.4619C53.6113 52.8014 53.4203 53.2618 53.4203 53.7418C53.408 53.987 53.4458 54.2322 53.5314 54.4624C53.617 54.6925 53.7486 54.9029 53.9182 55.0807C54.0879 55.2585 54.2919 55.4 54.5181 55.4965C54.7442 55.5931 54.9876 55.6428 55.2336 55.6424C55.4795 55.6428 55.723 55.5931 55.9491 55.4965C56.1752 55.4 56.3793 55.2585 56.5489 55.0807C56.7186 54.9029 56.8502 54.6925 56.9358 54.4624C57.0214 54.2322 57.0592 53.987 57.0469 53.7418C57.0469 53.2618 56.8559 52.8014 56.5158 52.4619C56.1757 52.1224 55.7145 51.9317 55.2336 51.9317Z" fill="black"/>
<path id="Vector_11" d="M33.6552 54.4478C33.5003 54.4494 33.3508 54.391 33.2381 54.2849C33.1783 54.2275 33.1308 54.1586 33.0983 54.0824C33.0658 54.0062 33.0491 53.9242 33.0491 53.8414C33.0491 53.7586 33.0658 53.6766 33.0983 53.6004C33.1308 53.5242 33.1783 53.4553 33.2381 53.3979L55.4331 28.0565C55.5548 27.9393 55.7173 27.8738 55.8865 27.8738C56.0556 27.8738 56.2181 27.9393 56.3398 28.0565C56.4572 28.178 56.5229 28.3402 56.5229 28.5091C56.5229 28.6779 56.4572 28.8401 56.3398 28.9616L34.1267 54.303C34.0623 54.3582 33.9872 54.3996 33.9061 54.4245C33.8249 54.4494 33.7395 54.4573 33.6552 54.4478Z" fill="black"/>
<path id="Vector_12" d="M27.3267 54.4478C27.237 54.448 27.1483 54.4286 27.0669 54.3911C26.9855 54.3536 26.9132 54.2988 26.8552 54.2306L4.64207 28.8892C4.52463 28.7677 4.45898 28.6055 4.45898 28.4367C4.45898 28.2679 4.52463 28.1056 4.64207 27.9842C4.76376 27.8669 4.92628 27.8014 5.0954 27.8014C5.26452 27.8014 5.42704 27.8669 5.54873 27.9842L27.7437 53.3255C27.8035 53.3829 27.8511 53.4518 27.8836 53.528C27.916 53.6042 27.9328 53.6862 27.9328 53.769C27.9328 53.8518 27.916 53.9338 27.8836 54.01C27.8511 54.0862 27.8035 54.155 27.7437 54.2125C27.6408 54.3423 27.4912 54.4267 27.3267 54.4478Z" fill="black"/>
<path id="Vector_13" d="M28.596 7.60242C28.4276 7.60242 28.2662 7.53567 28.1472 7.41686C28.0282 7.29805 27.9613 7.1369 27.9613 6.96888V0.633532C27.9613 0.465508 28.0282 0.304375 28.1472 0.185564C28.2662 0.0667536 28.4276 0 28.596 0C28.7643 0 28.9257 0.0667536 29.0447 0.185564C29.1638 0.304375 29.2306 0.465508 29.2306 0.633532V6.96888C29.2306 7.1369 29.1638 7.29805 29.0447 7.41686C28.9257 7.53567 28.7643 7.60242 28.596 7.60242Z" fill="black"/>
<path id="Vector_14" d="M42.5585 4.43469H40.0199V6.96883H42.5585V4.43469Z" fill="black"/>
<path id="Vector_15" d="M46.3665 4.43469H43.8279V6.96883H46.3665V4.43469Z" fill="black"/>
<path id="Vector_16" d="M50.1563 4.43469H47.6177V6.96883H50.1563V4.43469Z" fill="black"/>
<path id="Vector_17" d="M13.3642 4.43469H10.8256V6.96883H13.3642V4.43469Z" fill="black"/>
<path id="Vector_18" d="M17.1721 4.43469H14.6334V6.96883H17.1721V4.43469Z" fill="black"/>
<path id="Vector_19" d="M20.9801 4.43469H18.4414V6.96883H20.9801V4.43469Z" fill="black"/>
</g>
<defs>
<clipPath id="clip0_11_368">
<rect width="61" height="57" fill="white"/>
</clipPath>
</defs>
</svg>
