<svg width="210" height="52" viewBox="0 0 210 52" fill="none" xmlns="http://www.w3.org/2000/svg">
<g id="Isolation_Mode" clip-path="url(#clip0_2_3)">
<path id="Vector" d="M-4.27556e-05 12.3484C-0.0367857 11.6492 0.136324 10.9549 0.496934 10.3553C0.857543 9.75575 1.38909 9.27837 2.02292 8.98485C2.65676 8.69133 3.36377 8.59515 4.05265 8.70873C4.74154 8.82231 5.38065 9.14043 5.88746 9.62201C6.39427 10.1036 6.74549 10.7265 6.89577 11.4103C7.04605 12.0941 6.98849 12.8074 6.73052 13.4581C6.47254 14.1088 6.026 14.6669 5.44857 15.0605C4.87114 15.454 4.18933 15.6649 3.49121 15.6659C3.04254 15.6872 2.59422 15.6173 2.17314 15.4605C1.75207 15.3037 1.36693 15.0631 1.04086 14.7533C0.714788 14.4434 0.454503 14.0707 0.275631 13.6574C0.0967595 13.2442 0.00299195 12.7989 -4.27556e-05 12.3484ZM0.603706 18.3778H6.27371V40.8892H0.603706V18.3778Z" fill="white"/>
<path id="Vector_2" d="M18.6638 18.0092C20.1114 17.9645 21.5475 18.2801 22.8439 18.9279C24.1402 19.5757 25.2563 20.5356 26.0925 21.7216V18.3515H31.815V41.0472C31.9108 42.5287 31.6869 44.0134 31.1585 45.4001C30.6301 46.7868 29.8096 48.0429 28.7531 49.0826C27.6966 50.1223 26.4289 50.9211 25.0366 51.4246C23.6442 51.9281 22.1599 52.1244 20.685 52.0001C14.3588 52.0001 9.94877 48.8143 9.37127 43.6538H15.015C15.4284 44.7511 16.1952 45.6786 17.1938 46.2892C18.1924 46.8997 19.3657 47.1583 20.5275 47.0239C21.3068 47.0784 22.0884 46.9577 22.8153 46.6707C23.5422 46.3837 24.1961 45.9376 24.7292 45.365C25.2624 44.7924 25.6615 44.1076 25.8973 43.3606C26.1332 42.6136 26.1999 41.8233 26.0925 41.0472V37.5191C25.2514 38.7001 24.1343 39.6561 22.8392 40.3034C21.544 40.9506 20.1103 41.2693 18.6638 41.2315C12.9413 41.2315 8.40002 36.5449 8.40002 29.5151C8.40002 22.4852 12.9413 17.9829 18.6638 17.9829M20.1338 22.9591C19.2951 22.9655 18.467 23.1478 17.7028 23.4944C16.9385 23.841 16.2551 24.3442 15.6963 24.9716C15.1376 25.599 14.7159 26.3367 14.4584 27.1373C14.2009 27.938 14.1133 28.7838 14.2013 29.6204C14.1257 30.4572 14.2216 31.3008 14.4831 32.0991C14.7446 32.8974 15.1661 33.6336 15.7218 34.2625C16.2775 34.8914 16.9555 35.3996 17.7143 35.7559C18.473 36.1121 19.2964 36.309 20.1338 36.3343C21.6996 36.0903 23.1269 35.2927 24.1578 34.0856C25.1887 32.8785 25.7553 31.3414 25.7553 29.752C25.7553 28.1626 25.1887 26.6256 24.1578 25.4185C23.1269 24.2114 21.6996 23.4138 20.1338 23.1697" fill="white"/>
<path id="Vector_3" d="M51.0825 28.4353C51.1325 27.7425 51.0395 27.0469 50.8095 26.3918C50.5795 25.7366 50.2174 25.136 49.7457 24.6275C49.2741 24.1189 48.703 23.7134 48.0681 23.436C47.4332 23.1587 46.7481 23.0155 46.0556 23.0155C45.3631 23.0155 44.6781 23.1587 44.0432 23.436C43.4083 23.7134 42.8372 24.1189 42.3655 24.6275C41.8939 25.136 41.5317 25.7366 41.3017 26.3918C41.0717 27.0469 40.9788 27.7425 41.0288 28.4353V40.889H35.3588V18.3776H41.0288V21.1685C41.8435 20.1615 42.8777 19.3553 44.0519 18.8122C45.226 18.269 46.5087 18.0032 47.8013 18.0353C53.0513 18.0353 56.7525 21.4581 56.7525 27.6718V40.8363H51.0825V28.4353Z" fill="white"/>
<path id="Vector_4" d="M75.6 18.3777H81.6375L67.7513 51.5524H61.7138L66.57 40.3362L57.5663 18.3777H63.945L69.72 34.0962L75.6 18.3777Z" fill="white"/>
<path id="Vector_5" d="M83.58 23.0379H80.955V18.3513H83.58V12.7959H89.25V18.3513H94.2637V23.0379H89.25V33.9382C89.25 35.4389 89.8537 36.0972 91.6387 36.0972H94.2637V40.8891H90.7725C86.4675 40.8891 83.58 39.0723 83.58 33.8855V23.0379Z" fill="white"/>
<path id="Vector_6" d="M106.234 41.2578C103.255 41.1155 100.446 39.8288 98.3885 37.6644C96.3309 35.5 95.183 32.6241 95.183 29.6335C95.183 26.6428 96.3309 23.767 98.3885 21.6026C100.446 19.4382 103.255 18.1514 106.234 18.0092C107.711 17.9287 109.188 18.1621 110.568 18.694C111.949 19.226 113.202 20.0445 114.245 21.096C115.289 22.1474 116.099 23.4081 116.623 24.7955C117.147 26.1828 117.372 27.6655 117.285 29.1464C117.298 29.8781 117.245 30.6095 117.128 31.3317H100.721C100.721 32.0344 100.861 32.7301 101.133 33.3777C101.405 34.0253 101.804 34.6118 102.305 35.1025C102.807 35.5933 103.401 35.9783 104.053 36.2351C104.705 36.4919 105.402 36.6151 106.103 36.5975C107.028 36.6649 107.953 36.4494 108.754 35.9794C109.555 35.5094 110.196 34.807 110.591 33.9646H116.734C116.055 36.1985 114.655 38.1427 112.754 39.4915C110.854 40.8403 108.56 41.5172 106.234 41.4157M100.748 27.514H111.405C111.385 26.8477 111.232 26.1921 110.956 25.5858C110.68 24.9795 110.286 24.4347 109.797 23.9834C109.308 23.532 108.733 23.1833 108.108 22.9577C107.483 22.732 106.819 22.634 106.155 22.6694C104.832 22.6652 103.557 23.1618 102.584 24.0599C101.61 24.9581 101.011 26.1916 100.905 27.514" fill="white"/>
<path id="Vector_7" d="M128.021 41.2576C122.377 41.2576 118.44 37.9665 118.204 33.7802H123.926C124.105 34.6964 124.619 35.5124 125.367 36.0679C126.115 36.6233 127.043 36.8779 127.969 36.7817C130.2 36.7817 131.434 35.7549 131.434 34.4647C131.434 30.4364 118.729 33.0166 118.729 24.7493C118.729 21.0106 122.062 18.009 127.627 18.009C133.192 18.009 136.342 20.9579 136.657 25.4338H131.25C131.195 24.9922 131.053 24.5659 130.833 24.1794C130.613 23.793 130.319 23.4542 129.967 23.1825C129.616 22.9107 129.214 22.7115 128.786 22.5963C128.357 22.4811 127.91 22.4522 127.47 22.5113C125.37 22.5113 124.267 23.3538 124.267 24.6703C124.267 28.7776 136.736 26.1974 136.894 34.4647C136.894 38.3351 133.534 41.2576 128.047 41.2576" fill="white"/>
<path id="Vector_8" d="M145.189 12.5063V36.3869H154.534V40.8891H139.519V12.5063H145.189Z" fill="#3087C8"/>
<path id="Vector_9" d="M199.736 18.0091C205.511 18.0091 210 22.5114 210 29.6202C210 36.7291 205.511 41.3367 199.736 41.3367C198.305 41.3874 196.883 41.0878 195.594 40.4639C194.304 39.8401 193.185 38.9106 192.334 37.7559V40.9681H186.637V10.7949H192.334V21.7215C193.17 20.5455 194.284 19.5957 195.576 18.957C196.867 18.3184 198.297 18.0108 199.736 18.0618M198.24 23.038C196.701 23.3153 195.308 24.1264 194.304 25.3297C193.301 26.5329 192.751 28.0516 192.751 29.6202C192.751 31.1889 193.301 32.7076 194.304 33.9108C195.308 35.1141 196.701 35.9252 198.24 36.2025C199.068 36.1796 199.882 35.9892 200.635 35.6425C201.387 35.2959 202.062 34.8003 202.618 34.1855C203.175 33.5706 203.602 32.8493 203.873 32.0648C204.145 31.2802 204.256 30.4487 204.199 29.6202C204.271 28.7897 204.171 27.9532 203.905 27.1633C203.639 26.3735 203.213 25.6477 202.653 25.0316C202.093 24.4155 201.411 23.9226 200.652 23.5839C199.892 23.2453 199.071 23.0684 198.24 23.0643" fill="#3087C8"/>
<path id="Vector_10" d="M171.57 14.6652C170.362 16.7716 169.26 18.6409 168.236 20.5366C168.09 20.8771 167.836 21.1597 167.513 21.3406C167.19 21.5215 166.817 21.5906 166.451 21.5371C165.139 21.5371 163.826 21.5371 162.225 21.5371C162.514 20.9842 162.671 20.5893 162.907 20.2207C166.556 13.849 170.231 7.50371 173.854 1.13207C174.02 0.752899 174.304 0.43783 174.664 0.233813C175.023 0.0297972 175.439 -0.0522448 175.849 -8.55876e-05C177.109 -8.55876e-05 178.474 -8.55876e-05 179.891 -8.55876e-05C179.629 0.552826 179.445 0.974087 179.235 1.34269C177.791 3.84396 176.4 6.34523 174.904 8.79384C174.675 9.11206 174.552 9.49431 174.552 9.8865C174.552 10.2787 174.675 10.6609 174.904 10.9792C177.529 15.3235 179.996 19.6678 182.437 24.1437C183.309 25.695 183.84 27.4149 183.995 29.1885C184.15 30.9621 183.926 32.7485 183.337 34.4282C182.749 36.108 181.809 37.6423 180.582 38.9286C179.355 40.2149 177.868 41.2235 176.22 41.887C174.573 42.5505 172.804 42.8536 171.03 42.7761C169.257 42.6985 167.521 42.242 165.937 41.4372C164.354 40.6323 162.96 39.4977 161.849 38.1091C160.738 36.7205 159.935 35.11 159.495 33.3852C159.364 32.885 159.259 32.3847 159.075 31.6475C157.369 31.6475 155.61 31.6475 153.825 31.6475C152.775 31.6475 152.46 31.3316 152.46 30.2784C152.46 26.9083 152.46 26.9083 155.767 26.9083C160.519 26.9083 165.244 26.9083 169.995 26.9083C171.045 26.9083 171.36 27.2242 171.36 28.2774C171.36 31.6475 171.36 31.6475 168.079 31.6475H164.141C164.34 33.0518 164.942 34.3675 165.874 35.4337C166.807 36.5 168.029 37.2703 169.391 37.6505C170.87 38.0951 172.447 38.0816 173.918 37.6118C175.389 37.142 176.684 36.2378 177.634 35.0176C178.557 33.9169 179.133 32.5651 179.287 31.1349C179.441 29.7046 179.167 28.2607 178.5 26.9873C176.4 22.9062 173.985 19.0885 171.544 14.7179" fill="#3087C8"/>
</g>
<defs>
<clipPath id="clip0_2_3">
<rect width="210" height="52" fill="white"/>
</clipPath>
</defs>
</svg>
