<svg width="60" height="60" viewBox="0 0 60 60" fill="none" xmlns="http://www.w3.org/2000/svg">
<g id="_1" clip-path="url(#clip0_12_409)">
<path id="Vector" d="M32.8837 5.10791H26.1458C25.9759 5.10791 25.8129 5.04065 25.6927 4.92091C25.5725 4.80117 25.505 4.63875 25.505 4.46941C25.505 4.30007 25.5725 4.13768 25.6927 4.01794C25.8129 3.89819 25.9759 3.83093 26.1458 3.83093H32.8837C33.0537 3.83093 33.2167 3.89819 33.3368 4.01794C33.457 4.13768 33.5245 4.30007 33.5245 4.46941C33.5245 4.63875 33.457 4.80117 33.3368 4.92091C33.2167 5.04065 33.0537 5.10791 32.8837 5.10791Z" fill="black"/>
<path id="Vector_2" d="M34.495 49.7841H15.9109C15.826 49.7866 15.7416 49.7718 15.6627 49.7406C15.5838 49.7094 15.5121 49.6625 15.4521 49.6027C15.3921 49.5429 15.345 49.4715 15.3137 49.3929C15.2824 49.3143 15.2675 49.2301 15.2701 49.1456V9.57732C15.2701 9.40798 15.3376 9.24559 15.4578 9.12585C15.5779 9.0061 15.7409 8.93884 15.9109 8.93884H44.0891C44.2591 8.93884 44.4221 9.0061 44.5422 9.12585C44.6624 9.24559 44.7299 9.40798 44.7299 9.57732V26.2328C44.7299 26.4022 44.6624 26.5646 44.5422 26.6843C44.4221 26.8041 44.2591 26.8713 44.0891 26.8713C43.9191 26.8713 43.7561 26.8041 43.636 26.6843C43.5158 26.5646 43.4483 26.4022 43.4483 26.2328V10.2158H16.5517V48.5253H34.495C34.6649 48.5253 34.8279 48.5926 34.9481 48.7123C35.0683 48.8321 35.1358 48.9945 35.1358 49.1638C35.1358 49.2468 35.1191 49.329 35.0867 49.4055C35.0543 49.482 35.0068 49.5512 34.947 49.609C34.8873 49.6668 34.8165 49.7121 34.7388 49.7422C34.6612 49.7723 34.5782 49.7865 34.495 49.7841Z" fill="black"/>
<path id="Vector_3" d="M45.2426 60H14.7574C13.5337 60 12.3601 59.5157 11.4948 58.6535C10.6295 57.7914 10.1434 56.6221 10.1434 55.4029V4.59715C10.1434 3.37791 10.6295 2.20862 11.4948 1.34648C12.3601 0.484354 13.5337 0 14.7574 0H45.2426C46.4663 0 47.6399 0.484354 48.5052 1.34648C49.3705 2.20862 49.8566 3.37791 49.8566 4.59715V55.4029C49.8566 56.6221 49.3705 57.7914 48.5052 58.6535C47.6399 59.5157 46.4663 60 45.2426 60ZM14.7574 1.25875C13.8736 1.25875 13.026 1.60855 12.4011 2.2312C11.7762 2.85385 11.4251 3.69836 11.4251 4.57892V55.3846C11.4227 55.8213 11.5072 56.2541 11.6738 56.6581C11.8404 57.062 12.0858 57.4289 12.3957 57.7377C12.7056 58.0465 13.0739 58.291 13.4793 58.457C13.8847 58.623 14.3191 58.7072 14.7574 58.7048H45.2426C46.1264 58.7048 46.974 58.355 47.5989 57.7323C48.2238 57.1097 48.5749 56.2652 48.5749 55.3846V4.59715C48.5749 3.7149 48.2244 2.86852 47.6 2.24297C46.9756 1.61742 46.1281 1.26357 45.2426 1.25875H14.7574Z" fill="black"/>
<path id="Vector_4" d="M44.0891 49.7841H15.9109C15.826 49.7866 15.7416 49.7718 15.6627 49.7406C15.5838 49.7094 15.5121 49.6625 15.4521 49.6027C15.3921 49.5429 15.345 49.4715 15.3137 49.3929C15.2824 49.3143 15.2675 49.2301 15.2701 49.1456V9.57732C15.2701 9.40798 15.3376 9.24559 15.4578 9.12585C15.5779 9.0061 15.7409 8.93884 15.9109 8.93884H44.0891C44.2591 8.93884 44.4221 9.0061 44.5422 9.12585C44.6624 9.24559 44.7299 9.40798 44.7299 9.57732V49.1456C44.7299 49.2294 44.7134 49.3125 44.6811 49.3899C44.6489 49.4674 44.6017 49.5378 44.5422 49.5971C44.4827 49.6563 44.4121 49.7034 44.3343 49.7355C44.2566 49.7676 44.1733 49.7841 44.0891 49.7841ZM16.625 48.5071H43.5215V10.1976H16.5517L16.625 48.5071Z" fill="black"/>
<path id="Vector_5" d="M38.9625 22.9857C38.7926 22.9857 38.6296 22.9184 38.5094 22.7987C38.3892 22.6789 38.3217 22.5165 38.3217 22.3472V15.3238H35.0992C34.9293 15.3238 34.7663 15.2565 34.6461 15.1368C34.5259 15.017 34.4584 14.8546 34.4584 14.6853C34.4559 14.5999 34.4707 14.5149 34.5018 14.4354C34.5329 14.3558 34.5797 14.2832 34.6395 14.222C34.6992 14.1607 34.7707 14.1121 34.8497 14.0789C34.9286 14.0456 35.0135 14.0285 35.0992 14.0286H38.9442C39.1142 14.0286 39.2772 14.0958 39.3973 14.2156C39.5175 14.3353 39.585 14.4977 39.585 14.6671V22.329C39.5875 22.4128 39.5733 22.4963 39.5433 22.5747C39.5134 22.6531 39.4682 22.7249 39.4104 22.7859C39.3525 22.8469 39.2832 22.8959 39.2064 22.9302C39.1295 22.9645 39.0467 22.9833 38.9625 22.9857Z" fill="black"/>
<path id="Vector_6" d="M57.4 36.7772C57.2755 36.7773 57.154 36.739 57.0522 36.6677C56.9811 36.6233 56.9198 36.5651 56.872 36.4965C56.8241 36.428 56.7906 36.3505 56.7735 36.2687C56.7564 36.187 56.756 36.1026 56.7724 36.0207C56.7889 35.9387 56.8217 35.861 56.8691 35.792C58.0775 33.9147 58.7135 31.7285 58.7 29.4983C58.7231 27.2668 58.0863 25.0779 56.8691 23.2046C56.7774 23.061 56.7453 22.8876 56.7794 22.7208C56.8136 22.5541 56.9114 22.4071 57.0522 22.3107C57.1934 22.2204 57.3647 22.1889 57.529 22.223C57.6934 22.2571 57.8377 22.3541 57.931 22.4932C59.2962 24.5751 60.0158 27.0115 60 29.4983C60.0058 31.9781 59.2869 34.4058 57.931 36.4853C57.8736 36.5738 57.795 36.6468 57.7024 36.6977C57.6097 36.7487 57.5059 36.776 57.4 36.7772Z" fill="black"/>
<path id="Vector_7" d="M54.3424 33.9861C54.2323 33.9836 54.1249 33.9521 54.0311 33.8949C53.8828 33.8104 53.7733 33.6719 53.7255 33.5086C53.6776 33.3453 53.6953 33.1698 53.7748 33.0192C54.3882 31.9474 54.7041 30.7321 54.6902 29.4984C54.7071 28.2666 54.3976 27.0522 53.7931 25.9776C53.7473 25.9064 53.7166 25.8267 53.7029 25.7432C53.6892 25.6598 53.6927 25.5745 53.7133 25.4925C53.7339 25.4105 53.771 25.3335 53.8225 25.2664C53.8741 25.1992 53.9388 25.1433 54.0128 25.1019C54.0842 25.0563 54.1642 25.0257 54.248 25.0121C54.3317 24.9984 54.4173 25.0019 54.4996 25.0224C54.5819 25.0429 54.6591 25.08 54.7266 25.1313C54.794 25.1826 54.8501 25.2471 54.8916 25.3208C55.6263 26.5904 56.0057 28.033 55.9902 29.4984C55.998 30.957 55.619 32.3918 54.8916 33.6577C54.837 33.7556 54.7575 33.8375 54.6611 33.8952C54.5647 33.9528 54.4548 33.9842 54.3424 33.9861Z" fill="black"/>
<path id="Vector_8" d="M2.59995 36.7771C2.49164 36.7757 2.38523 36.7485 2.28966 36.6977C2.19409 36.6469 2.11213 36.5741 2.05066 36.4852C0.701223 34.4038 -0.011282 31.9762 1.00994e-05 29.4983C0.0159258 27.0111 0.760465 24.5828 2.14221 22.5113C2.23263 22.3693 2.37567 22.2686 2.54023 22.231C2.70479 22.1934 2.87758 22.222 3.02106 22.3107C3.16363 22.4008 3.26476 22.5433 3.30247 22.7073C3.34018 22.8712 3.31143 23.0434 3.22247 23.1863C2.01064 25.0689 1.37449 27.2619 1.39152 29.4983C1.37381 31.729 2.01015 33.9164 3.22247 35.792C3.31314 35.9327 3.34476 36.1033 3.31052 36.2671C3.27628 36.4308 3.17893 36.5747 3.03938 36.6676C2.91116 36.7562 2.75491 36.7951 2.59995 36.7771Z" fill="black"/>
<path id="Vector_9" d="M5.65757 33.986C5.54515 33.9841 5.43521 33.9527 5.3388 33.8951C5.24238 33.8374 5.16289 33.7555 5.10829 33.6576C4.37596 32.3937 3.99663 30.9576 4.00973 29.4983C3.99977 28.0417 4.37217 26.6079 5.08998 25.339C5.17474 25.1912 5.31372 25.0821 5.47765 25.0345C5.64158 24.9868 5.81767 25.0044 5.96884 25.0836C6.04246 25.1252 6.10708 25.181 6.15896 25.2476C6.21084 25.3143 6.24894 25.3905 6.27108 25.472C6.29321 25.5534 6.29892 25.6383 6.2879 25.722C6.27688 25.8056 6.24934 25.8862 6.20686 25.9592C5.59919 27.04 5.28373 28.2595 5.29139 29.4983C5.28354 30.7313 5.59912 31.945 6.20686 33.0191C6.28949 33.1654 6.31277 33.3376 6.27191 33.5005C6.23105 33.6633 6.12914 33.8044 5.98714 33.8947C5.88579 33.95 5.77301 33.9812 5.65757 33.986Z" fill="black"/>
<path id="Vector_10" d="M15.9109 49.7842C15.7492 49.785 15.5928 49.7266 15.4715 49.62C15.3541 49.5006 15.2883 49.3402 15.2883 49.1731C15.2883 49.0059 15.3541 48.8455 15.4715 48.7261L28.2881 34.6793C28.411 34.5612 28.5751 34.4951 28.7458 34.4951C28.9166 34.4951 29.0807 34.5612 29.2036 34.6793C29.321 34.7987 29.3868 34.9591 29.3868 35.1262C29.3868 35.2934 29.321 35.4538 29.2036 35.5732L16.387 49.62C16.3235 49.6789 16.2484 49.7239 16.1664 49.7522C16.0844 49.7805 15.9974 49.7914 15.9109 49.7842Z" fill="black"/>
<path id="Vector_11" d="M28.2514 42.1222C28.1707 42.1265 28.0901 42.1141 28.0145 42.0859C27.9388 42.0576 27.8699 42.0141 27.812 41.958C27.6946 41.8387 27.6288 41.6782 27.6288 41.5111C27.6288 41.3439 27.6946 41.1835 27.812 41.0641L35.9597 32.1252C36.0825 32.0071 36.2466 31.941 36.4174 31.941C36.5882 31.941 36.7523 32.0071 36.8751 32.1252C36.9926 32.2446 37.0583 32.405 37.0583 32.5722C37.0583 32.7393 36.9926 32.8998 36.8751 33.0191L28.7274 41.958C28.664 42.0169 28.5888 42.062 28.5068 42.0902C28.4249 42.1185 28.3378 42.1294 28.2514 42.1222Z" fill="black"/>
<path id="Vector_12" d="M29.9909 20.4318H21.0193C20.8493 20.4318 20.6863 20.3645 20.5661 20.2448C20.4459 20.125 20.3784 19.9626 20.3784 19.7933C20.3784 19.6239 20.4459 19.4615 20.5661 19.3418C20.6863 19.222 20.8493 19.1548 21.0193 19.1548H29.9909C30.1608 19.1548 30.3238 19.222 30.444 19.3418C30.5642 19.4615 30.6317 19.6239 30.6317 19.7933C30.6317 19.9626 30.5642 20.125 30.444 20.2448C30.3238 20.3645 30.1608 20.4318 29.9909 20.4318Z" fill="black"/>
<path id="Vector_13" d="M29.9909 24.2627H21.0193C20.8493 24.2627 20.6863 24.1954 20.5661 24.0757C20.4459 23.956 20.3784 23.7935 20.3784 23.6242C20.3784 23.4549 20.4459 23.2925 20.5661 23.1727C20.6863 23.053 20.8493 22.9857 21.0193 22.9857H29.9909C30.1608 22.9857 30.3238 23.053 30.444 23.1727C30.5642 23.2925 30.6317 23.4549 30.6317 23.6242C30.6317 23.7935 30.5642 23.956 30.444 24.0757C30.3238 24.1954 30.1608 24.2627 29.9909 24.2627Z" fill="black"/>
<path id="Vector_14" d="M29.9908 51.4989C30.3073 51.4989 30.6207 51.5613 30.9129 51.6826C31.2051 51.8038 31.4704 51.9814 31.6933 52.2053C31.9163 52.4291 32.0926 52.6947 32.2121 52.9868C32.3315 53.2788 32.3918 53.5916 32.3894 53.9069C32.3894 54.5408 32.1367 55.1486 31.6868 55.5968C31.237 56.045 30.6269 56.2967 29.9908 56.2967C29.6758 56.2967 29.3639 56.2349 29.0729 56.1148C28.7819 55.9947 28.5175 55.8187 28.2948 55.5968C28.0721 55.3749 27.8954 55.1114 27.7749 54.8215C27.6543 54.5315 27.5923 54.2208 27.5923 53.9069C27.5923 53.2714 27.8444 52.6617 28.2937 52.2106C28.743 51.7595 29.353 51.5037 29.9908 51.4989Z" fill="black"/>
</g>
<defs>
<clipPath id="clip0_12_409">
<rect width="60" height="60" fill="white"/>
</clipPath>
</defs>
</svg>
