<svg width="22" height="23" viewBox="0 0 22 23" fill="none" xmlns="http://www.w3.org/2000/svg">
<path id="Vector" d="M16.0874 10.4504C16.1373 9.75768 16.0444 9.06203 15.8144 8.40689C15.5844 7.75174 15.2223 7.15116 14.7506 6.64262C14.2789 6.13408 13.7078 5.72849 13.073 5.45115C12.4381 5.17381 11.753 5.03068 11.0605 5.03068C10.368 5.03068 9.68298 5.17381 9.04809 5.45115C8.4132 5.72849 7.8421 6.13408 7.37043 6.64262C6.89876 7.15116 6.53662 7.75174 6.30663 8.40689C6.07663 9.06203 5.9837 9.75768 6.03365 10.4504V22.9041H0.363647V0.39273H6.03365V3.18362C6.8484 2.1766 7.88262 1.37048 9.05674 0.827304C10.2309 0.284123 11.5136 0.0183495 12.8061 0.0504491C18.0561 0.0504491 21.7574 3.47323 21.7574 9.6869V22.8515H16.0874V10.4504Z" fill="#9F9F9F"/>
</svg>
