<svg width="38" height="38" viewBox="0 0 38 38" fill="none" xmlns="http://www.w3.org/2000/svg">
<g id="pinterest">
<circle id="Ellipse 4" cx="19" cy="19" r="19" transform="rotate(90 19 19)" fill="#3087C8"/>
<path id="ic-pinterset" d="M11.3046 15.8698C11.3046 15.0051 11.4557 14.1882 11.7536 13.4258C12.0382 12.6852 12.461 12.0056 12.9995 11.423C13.5369 10.8481 14.1519 10.3509 14.8267 9.94591C15.519 9.52707 16.2685 9.21109 17.0517 9.00787C17.8444 8.79972 18.6606 8.69475 19.4802 8.69556C20.7461 8.69556 21.9242 8.96341 23.0167 9.49689C24.095 10.0206 25.0128 10.8244 25.6741 11.8242C26.3565 12.8412 26.6955 13.9915 26.6955 15.2741C26.6955 16.0432 26.6199 16.7956 26.4655 17.5313C26.3138 18.2667 26.0726 18.9807 25.7475 19.6575C25.4375 20.3126 25.0323 20.9183 24.5449 21.4547C24.0551 21.9825 23.4619 22.404 22.8022 22.6928C22.086 23.0067 21.3113 23.1646 20.5294 23.1562C19.9859 23.1562 19.4435 23.0284 18.9078 22.7717C18.3721 22.5161 17.9875 22.1649 17.7564 21.7147C17.6752 22.027 17.5641 22.4783 17.4163 23.0684C17.274 23.6575 17.1784 24.0376 17.1362 24.2099C17.0917 24.381 17.0095 24.6667 16.8895 25.0623C16.8081 25.355 16.7036 25.6408 16.5771 25.917L16.1948 26.6661C16.0295 26.9876 15.8446 27.2986 15.6413 27.5975C15.4402 27.8887 15.1912 28.2365 14.8945 28.6367L14.7289 28.6956L14.6188 28.5755C14.4999 27.3163 14.4388 26.5627 14.4388 26.3138C14.4388 25.5769 14.5266 24.75 14.7 23.832C14.87 22.9151 15.139 21.7625 15.5002 20.3766C15.8614 18.9918 16.0681 18.1771 16.1237 17.9359C15.8692 17.4169 15.7403 16.7389 15.7403 15.9053C15.7403 15.2396 15.9481 14.6161 16.3649 14.0293C16.7828 13.4447 17.3107 13.1524 17.9509 13.1524C18.441 13.1524 18.8211 13.3146 19.0934 13.6403C19.3668 13.9648 19.5002 14.3738 19.5002 14.8728C19.5002 15.4019 19.3246 16.1676 18.9711 17.169C18.6177 18.1715 18.4421 18.9195 18.4421 19.4163C18.4421 19.9198 18.6222 20.341 18.9823 20.6711C19.3376 21.0014 19.8076 21.1803 20.2926 21.1701C20.7327 21.1701 21.1406 21.0701 21.5196 20.8689C21.8927 20.6737 22.2156 20.3949 22.4632 20.0543C23.0025 19.3144 23.387 18.4733 23.5935 17.5814C23.7002 17.1123 23.7825 16.6667 23.8336 16.2477C23.8881 15.8264 23.9114 15.4285 23.9114 15.0507C23.9114 13.6647 23.4713 12.5844 22.5966 11.8109C21.7175 11.0373 20.5727 10.6528 19.1645 10.6528C17.563 10.6528 16.2237 11.1707 15.1512 12.2099C14.0776 13.2457 13.5374 14.5627 13.5374 16.1599C13.5374 16.5122 13.5908 16.8523 13.6919 17.1812C13.7908 17.5091 13.8986 17.7703 14.0153 17.9637C14.1309 18.1537 14.2398 18.3393 14.3388 18.5105C14.4388 18.6817 14.491 18.8039 14.491 18.8773C14.491 19.1018 14.4321 19.3941 14.3132 19.7553C14.1898 20.1165 14.0442 20.2966 13.8686 20.2966C13.8519 20.2966 13.783 20.2843 13.663 20.2588C13.2473 20.1347 12.8719 19.9027 12.5749 19.5864C12.2598 19.2586 12.0111 18.8728 11.8425 18.4505C11.6744 18.0297 11.5435 17.5949 11.4513 17.1512C11.3516 16.7314 11.3024 16.3012 11.3046 15.8698Z" fill="white"/>
</g>
</svg>
