<svg width="19" height="24" viewBox="0 0 19 24" fill="none" xmlns="http://www.w3.org/2000/svg">
<path id="Vector" d="M10.0261 23.273C4.38237 23.273 0.444868 19.9819 0.208618 15.7956H5.93112C6.10969 16.7118 6.62352 17.5278 7.37159 18.0832C8.11966 18.6387 9.04785 18.8933 9.97362 18.7971C12.2049 18.7971 13.4386 17.7702 13.4386 16.4801C13.4386 12.4518 0.73362 15.032 0.73362 6.76467C0.73362 3.02594 4.06737 0.0244141 9.63237 0.0244141C15.1974 0.0244141 18.3474 2.97327 18.6624 7.44922H13.2549C13.1999 7.00758 13.0582 6.58125 12.838 6.19483C12.6178 5.80841 12.3235 5.46955 11.9721 5.19783C11.6207 4.92611 11.219 4.7269 10.7904 4.61171C10.3618 4.49652 9.91469 4.46762 9.47488 4.52669C7.37488 4.52669 6.27237 5.36922 6.27237 6.68568C6.27237 10.793 18.7411 8.21277 18.8986 16.4801C18.8986 20.3505 15.5386 23.273 10.0524 23.273" fill="#9F9F9F"/>
</svg>
