<svg width="61" height="64" viewBox="0 0 61 64" fill="none" xmlns="http://www.w3.org/2000/svg">
<g id="_1" clip-path="url(#clip0_12_441)">
<path id="Vector" d="M39.711 64H18.9063C18.7997 63.9962 18.6953 63.968 18.6013 63.9174C18.5073 63.8668 18.4261 63.7952 18.3639 63.7081C18.3112 63.6164 18.2834 63.5124 18.2834 63.4065C18.2834 63.3006 18.3112 63.1965 18.3639 63.1048L22.2382 50.048C22.283 49.9076 22.3708 49.785 22.4891 49.6976C22.6073 49.6103 22.75 49.5627 22.8968 49.5615H35.8949C36.0391 49.5638 36.1788 49.6121 36.2938 49.6996C36.4087 49.7871 36.4929 49.9092 36.5341 50.048L40.4084 63.0659C40.4191 63.1499 40.4191 63.2349 40.4084 63.3189C40.4084 63.41 40.3902 63.5002 40.355 63.5841C40.3197 63.668 40.268 63.744 40.203 63.8075C40.138 63.871 40.0609 63.9208 39.9764 63.9538C39.8919 63.9869 39.8016 64.0026 39.711 64ZM19.8167 62.6378H38.8006L35.3137 50.9626H23.3229L19.8167 62.6378Z" fill="black"/>
<path id="Vector_2" d="M46.2197 64.0001H12.4169C12.2371 64.0001 12.0647 63.9284 11.9375 63.8006C11.8104 63.6729 11.7389 63.4997 11.7389 63.319C11.7363 63.2289 11.752 63.1391 11.7851 63.0553C11.8182 62.9714 11.8681 62.8953 11.9316 62.8315C11.9951 62.7677 12.0709 62.7176 12.1543 62.6844C12.2378 62.6511 12.3272 62.6353 12.4169 62.638H46.2197C46.3995 62.638 46.572 62.7098 46.6991 62.8375C46.8263 62.9652 46.8977 63.1384 46.8977 63.319C46.8977 63.4997 46.8263 63.6729 46.6991 63.8006C46.572 63.9284 46.3995 64.0001 46.2197 64.0001Z" fill="black"/>
<path id="Vector_3" d="M9.80185 41.7975H0.716743C0.536928 41.7975 0.364473 41.7257 0.237325 41.598C0.110176 41.4703 0.0387458 41.297 0.0387458 41.1164C0.0360645 41.0262 0.0517701 40.9365 0.0848934 40.8526C0.118017 40.7688 0.167862 40.6926 0.231361 40.6288C0.294861 40.565 0.370678 40.515 0.454149 40.4817C0.537619 40.4484 0.626981 40.4327 0.716743 40.4354H9.80185C9.89161 40.4327 9.98097 40.4484 10.0644 40.4817C10.1479 40.515 10.2237 40.565 10.2872 40.6288C10.3507 40.6926 10.4006 40.7688 10.4337 40.8526C10.4668 40.9365 10.4825 41.0262 10.4798 41.1164C10.4798 41.297 10.4084 41.4703 10.2813 41.598C10.1541 41.7257 9.98166 41.7975 9.80185 41.7975Z" fill="black"/>
<path id="Vector_4" d="M59.2372 41.7975H15.5938C15.414 41.7975 15.2415 41.7257 15.1144 41.598C14.9873 41.4703 14.9158 41.297 14.9158 41.1164C14.9131 41.0262 14.9288 40.9365 14.962 40.8526C14.9951 40.7688 15.0449 40.6926 15.1084 40.6288C15.1719 40.565 15.2478 40.515 15.3312 40.4817C15.4147 40.4484 15.5041 40.4327 15.5938 40.4354H59.2372C59.417 40.4354 59.5895 40.5071 59.7166 40.6348C59.8438 40.7625 59.9152 40.9358 59.9152 41.1164C59.9152 41.297 59.8438 41.4703 59.7166 41.598C59.5895 41.7257 59.417 41.7975 59.2372 41.7975Z" fill="black"/>
<path id="Vector_5" d="M53.5421 40.8441C53.3623 40.8441 53.1898 40.7723 53.0627 40.6446C52.9356 40.5169 52.8641 40.3436 52.8641 40.163V12.2591H42.6942C42.5144 12.2591 42.342 12.1873 42.2148 12.0596C42.0877 11.9319 42.0162 11.7587 42.0162 11.578C42.0162 11.3974 42.0877 11.2242 42.2148 11.0964C42.342 10.9687 42.5144 10.897 42.6942 10.897H53.5421C53.6312 10.897 53.7193 10.9146 53.8016 10.9488C53.8838 10.983 53.9586 11.0332 54.0215 11.0964C54.0845 11.1597 54.1344 11.2348 54.1685 11.3174C54.2026 11.4 54.2201 11.4886 54.2201 11.578V40.163C54.2201 40.2525 54.2026 40.341 54.1685 40.4236C54.1344 40.5063 54.0845 40.5813 54.0215 40.6446C53.9586 40.7078 53.8838 40.758 53.8016 40.7922C53.7193 40.8265 53.6312 40.8441 53.5421 40.8441Z" fill="black"/>
<path id="Vector_6" d="M6.10194 40.8441C5.92213 40.8441 5.74968 40.7723 5.62253 40.6446C5.49538 40.5169 5.42395 40.3436 5.42395 40.163V11.578C5.42395 11.3974 5.49538 11.2242 5.62253 11.0964C5.74968 10.9687 5.92213 10.897 6.10194 10.897H16.9498C17.1296 10.897 17.3021 10.9687 17.4292 11.0964C17.5564 11.2242 17.6278 11.3974 17.6278 11.578C17.6278 11.7587 17.5564 11.9319 17.4292 12.0596C17.3021 12.1873 17.1296 12.2591 16.9498 12.2591H6.77993V40.163C6.77993 40.2525 6.76239 40.341 6.72832 40.4236C6.69425 40.5063 6.64431 40.5813 6.58135 40.6446C6.51839 40.7078 6.44365 40.758 6.36139 40.7922C6.27914 40.8265 6.19098 40.8441 6.10194 40.8441Z" fill="black"/>
<path id="Vector_7" d="M14.2379 36.7576H11.5259C11.3552 36.7691 11.1864 36.7154 11.0535 36.6071C10.9205 36.4988 10.8333 36.3441 10.8092 36.1738V33.4496C10.8092 33.269 10.8806 33.0958 11.0078 32.968C11.1349 32.8403 11.3074 32.7686 11.4872 32.7686C11.667 32.7686 11.8395 32.8403 11.9666 32.968C12.0938 33.0958 12.1652 33.269 12.1652 33.4496V35.3955H14.1992C14.379 35.3955 14.5514 35.4673 14.6786 35.595C14.8057 35.7227 14.8772 35.8959 14.8772 36.0765C14.8774 36.2506 14.8114 36.4182 14.6925 36.5449C14.5736 36.6715 14.4109 36.7477 14.2379 36.7576Z" fill="black"/>
<path id="Vector_8" d="M48.1181 36.7576H45.4061C45.3171 36.7576 45.2289 36.74 45.1467 36.7058C45.0644 36.6715 44.9897 36.6214 44.9267 36.5581C44.8638 36.4949 44.8138 36.4198 44.7798 36.3372C44.7457 36.2545 44.7281 36.166 44.7281 36.0765C44.7281 35.9871 44.7457 35.8986 44.7798 35.8159C44.8138 35.7333 44.8638 35.6582 44.9267 35.595C44.9897 35.5317 45.0644 35.4816 45.1467 35.4473C45.2289 35.4131 45.3171 35.3955 45.4061 35.3955H47.3433V33.4496C47.3433 33.3602 47.3608 33.2716 47.3949 33.189C47.429 33.1064 47.4789 33.0313 47.5418 32.968C47.6048 32.9048 47.6795 32.8546 47.7618 32.8204C47.8441 32.7862 47.9322 32.7686 48.0213 32.7686C48.2011 32.7686 48.3735 32.8403 48.5007 32.968C48.6278 33.0958 48.6993 33.269 48.6993 33.4496V36.1738C48.6794 36.3216 48.6118 36.4588 48.5068 36.5643C48.4018 36.6697 48.2652 36.7377 48.1181 36.7576Z" fill="black"/>
<path id="Vector_9" d="M12.8819 59.9136H0.677997C0.498183 59.9136 0.325735 59.8419 0.198586 59.7142C0.0714381 59.5864 0 59.4132 0 59.2326C0 59.0519 0.0714381 58.8787 0.198586 58.751C0.325735 58.6233 0.498183 58.5515 0.677997 58.5515H12.8819C13.0617 58.5515 13.2341 58.6233 13.3613 58.751C13.4884 58.8787 13.5599 59.0519 13.5599 59.2326C13.5599 59.4132 13.4884 59.5864 13.3613 59.7142C13.2341 59.8419 13.0617 59.9136 12.8819 59.9136Z" fill="black"/>
<path id="Vector_10" d="M6.10194 55.8272H0.677997C0.498183 55.8272 0.325735 55.7555 0.198586 55.6277C0.0714381 55.5 0 55.3268 0 55.1461C0 54.9655 0.0714381 54.7923 0.198586 54.6646C0.325735 54.5368 0.498183 54.4651 0.677997 54.4651H6.10194C6.28175 54.4651 6.4542 54.5368 6.58135 54.6646C6.7085 54.7923 6.77993 54.9655 6.77993 55.1461C6.77993 55.3268 6.7085 55.5 6.58135 55.6277C6.4542 55.7555 6.28175 55.8272 6.10194 55.8272Z" fill="black"/>
<path id="Vector_11" d="M60.3221 59.9136H48.1182C47.9384 59.9136 47.7659 59.8419 47.6388 59.7142C47.5116 59.5864 47.4402 59.4132 47.4402 59.2326C47.4402 59.0519 47.5116 58.8787 47.6388 58.751C47.7659 58.6233 47.9384 58.5515 48.1182 58.5515H60.3221C60.5019 58.5515 60.6743 58.6233 60.8015 58.751C60.9286 58.8787 61 59.0519 61 59.2326C61 59.4132 60.9286 59.5864 60.8015 59.7142C60.6743 59.8419 60.5019 59.9136 60.3221 59.9136Z" fill="black"/>
<path id="Vector_12" d="M60.322 55.8272H54.8981C54.7183 55.8272 54.5458 55.7555 54.4187 55.6277C54.2915 55.5 54.2201 55.3268 54.2201 55.1461C54.2201 54.9655 54.2915 54.7923 54.4187 54.6646C54.5458 54.5368 54.7183 54.4651 54.8981 54.4651H60.322C60.5018 54.4651 60.6743 54.5368 60.8014 54.6646C60.9286 54.7923 61 54.9655 61 55.1461C61 55.3268 60.9286 55.5 60.8014 55.6277C60.6743 55.7555 60.5018 55.8272 60.322 55.8272Z" fill="black"/>
<path id="Vector_13" d="M56.0022 50.9236H3.91294C2.88543 50.9236 1.9 50.5136 1.17344 49.7837C0.446879 49.0539 0.0386963 48.064 0.0386963 47.0318V9.06772C0.0386963 8.03556 0.446879 7.04567 1.17344 6.31582C1.9 5.58598 2.88543 5.17596 3.91294 5.17596H16.9498C17.1296 5.17596 17.302 5.24772 17.4292 5.37544C17.5563 5.50316 17.6278 5.67638 17.6278 5.85701V29.947H42.0162C42.0162 20.5095 42.0162 6.86888 42.0162 5.95431C41.9776 5.83411 41.9776 5.70479 42.0162 5.58459C42.0659 5.45973 42.1513 5.35245 42.2616 5.27627C42.3719 5.20009 42.5022 5.15841 42.636 5.15649H55.9441C56.9716 5.15649 57.957 5.56653 58.6836 6.29638C59.4101 7.02622 59.8183 8.0161 59.8183 9.04825V47.0318C59.8184 48.054 59.4182 49.0351 58.7042 49.7633C57.9902 50.4915 57.0196 50.9083 56.0022 50.9236ZM3.91294 6.51862C3.5797 6.51862 3.24972 6.58455 2.94184 6.71266C2.63396 6.84076 2.35421 7.02853 2.11857 7.26523C1.88293 7.50194 1.69601 7.78295 1.56848 8.09222C1.44095 8.4015 1.37532 8.73296 1.37532 9.06772V47.0318C1.38043 47.7045 1.65004 48.3479 2.12538 48.8218C2.60073 49.2956 3.24326 49.5615 3.91294 49.5615H56.0022C56.6719 49.5615 57.3144 49.2956 57.7897 48.8218C58.2651 48.3479 58.5347 47.7045 58.5398 47.0318V9.06772C58.5398 8.39165 58.2725 7.74328 57.7966 7.26523C57.3207 6.78718 56.6752 6.51862 56.0022 6.51862H43.3915V18.1939C43.3915 24.304 43.3915 30.4919 43.3915 30.5502C43.3942 30.6404 43.3785 30.7302 43.3454 30.814C43.3122 30.8979 43.2624 30.974 43.1989 31.0378C43.1354 31.1016 43.0596 31.1517 42.9761 31.1849C42.8926 31.2182 42.8033 31.234 42.7135 31.2313H16.9498C16.86 31.234 16.7707 31.2182 16.6872 31.1849C16.6037 31.1517 16.5279 31.1016 16.4644 31.0378C16.4009 30.974 16.3511 30.8979 16.3179 30.814C16.2848 30.7302 16.2691 30.6404 16.2718 30.5502V6.51862H3.91294Z" fill="black"/>
<path id="Vector_14" d="M42.6941 31.3091H16.9498C16.86 31.3118 16.7706 31.2961 16.6872 31.2628C16.6037 31.2295 16.5279 31.1794 16.4644 31.1156C16.4009 31.0519 16.351 30.9757 16.3179 30.8919C16.2848 30.808 16.2691 30.7182 16.2718 30.6281V0.680977C16.2691 0.590809 16.2848 0.501043 16.3179 0.417195C16.351 0.333347 16.4009 0.257195 16.4644 0.193408C16.5279 0.129621 16.6037 0.0795513 16.6872 0.0462782C16.7706 0.0130051 16.86 -0.00277146 16.9498 -7.805e-05H37.2702C37.3601 -0.00493733 37.4501 0.0099559 37.5337 0.0435614C37.6173 0.077167 37.6927 0.128674 37.7545 0.194507L43.1784 5.64297C43.244 5.70505 43.2952 5.78074 43.3287 5.86475C43.3621 5.94877 43.377 6.03908 43.3721 6.12944V30.6281C43.3748 30.7182 43.3591 30.808 43.326 30.8919C43.2929 30.9757 43.243 31.0519 43.1795 31.1156C43.116 31.1794 43.0402 31.2295 42.9567 31.2628C42.8733 31.2961 42.7839 31.3118 42.6941 31.3091ZM17.6278 29.947H42.0161V6.40186L36.999 1.36204H17.6278V29.947Z" fill="black"/>
<path id="Vector_15" d="M42.6942 6.81064H37.2703C37.0905 6.81064 36.918 6.73888 36.7909 6.61116C36.6637 6.48343 36.5923 6.3102 36.5923 6.12957V0.681106C36.5923 0.500478 36.6637 0.327251 36.7909 0.199528C36.918 0.0718044 37.0905 5.08144e-05 37.2703 5.08144e-05C37.36 -0.00264259 37.4494 0.013134 37.5329 0.0464071C37.6163 0.0796802 37.6922 0.12975 37.7557 0.193537C37.8192 0.257324 37.869 0.333476 37.9021 0.417324C37.9352 0.501172 37.9509 0.590938 37.9483 0.681106V5.44851H42.6942C42.784 5.44582 42.8733 5.46159 42.9568 5.49486C43.0403 5.52814 43.1161 5.57821 43.1796 5.642C43.2431 5.70579 43.2929 5.78194 43.3261 5.86579C43.3592 5.94964 43.3749 6.0394 43.3722 6.12957C43.3722 6.21901 43.3547 6.30757 43.3206 6.3902C43.2865 6.47283 43.2366 6.54791 43.1736 6.61116C43.1107 6.6744 43.0359 6.72456 42.9537 6.75878C42.8714 6.79301 42.7833 6.81064 42.6942 6.81064Z" fill="black"/>
<path id="Vector_16" d="M38.6262 16.3258H21.0178C20.9297 16.3284 20.8419 16.3132 20.7598 16.2812C20.6776 16.2491 20.6027 16.2008 20.5395 16.1391C20.4763 16.0774 20.426 16.0035 20.3917 15.922C20.3574 15.8404 20.3397 15.7528 20.3398 15.6642V4.7673C20.3371 4.67713 20.3528 4.58736 20.3859 4.50351C20.419 4.41967 20.4689 4.34351 20.5324 4.27972C20.5959 4.21593 20.6717 4.16586 20.7552 4.13259C20.8386 4.09932 20.928 4.08354 21.0178 4.08623H33.2023C33.292 4.08354 33.3814 4.09932 33.4649 4.13259C33.5483 4.16586 33.6242 4.21593 33.6877 4.27972C33.7512 4.34351 33.801 4.41967 33.8341 4.50351C33.8672 4.58736 33.8829 4.67713 33.8803 4.7673C33.8803 4.85673 33.8627 4.94529 33.8287 5.02792C33.7946 5.11055 33.7446 5.18564 33.6817 5.24888C33.6187 5.31212 33.544 5.36228 33.4617 5.39651C33.3795 5.43073 33.2913 5.44835 33.2023 5.44835H21.6958V14.9832H37.9289V10.2158C37.9289 10.0351 38.0003 9.8619 38.1274 9.73418C38.2546 9.60646 38.427 9.5347 38.6068 9.5347C38.6966 9.532 38.786 9.54779 38.8694 9.58106C38.9529 9.61433 39.0287 9.6644 39.0922 9.72818C39.1557 9.79197 39.2056 9.86812 39.2387 9.95197C39.2718 10.0358 39.2875 10.1256 39.2848 10.2158V15.6642C39.2848 15.8397 39.2154 16.008 39.0919 16.132C38.9684 16.2561 38.8009 16.3258 38.6262 16.3258Z" fill="black"/>
<path id="Vector_17" d="M38.6262 21.7745H21.0178C20.928 21.7772 20.8386 21.7614 20.7552 21.7281C20.6717 21.6948 20.5959 21.6448 20.5324 21.581C20.4689 21.5172 20.419 21.441 20.3859 21.3572C20.3528 21.2733 20.3371 21.1836 20.3398 21.0934C20.3398 20.9128 20.4112 20.7395 20.5384 20.6118C20.6655 20.4841 20.838 20.4124 21.0178 20.4124H38.6262C38.806 20.4124 38.9785 20.4841 39.1056 20.6118C39.2328 20.7395 39.3042 20.9128 39.3042 21.0934C39.3069 21.1836 39.2912 21.2733 39.2581 21.3572C39.2249 21.441 39.1751 21.5172 39.1116 21.581C39.0481 21.6448 38.9723 21.6948 38.8888 21.7281C38.8053 21.7614 38.716 21.7772 38.6262 21.7745Z" fill="black"/>
<path id="Vector_18" d="M38.6262 25.8606H35.9917C35.8119 25.8606 35.6394 25.7889 35.5123 25.6612C35.3852 25.5335 35.3137 25.3602 35.3137 25.1796C35.3137 24.999 35.3852 24.8257 35.5123 24.698C35.6394 24.5703 35.8119 24.4985 35.9917 24.4985H38.7037C38.8835 24.4985 39.0559 24.5703 39.1831 24.698C39.3102 24.8257 39.3817 24.999 39.3817 25.1796C39.3856 25.2769 39.3681 25.3739 39.3304 25.4637C39.2926 25.5534 39.2357 25.6337 39.1635 25.6987C39.0913 25.7638 39.0057 25.812 38.9129 25.84C38.82 25.868 38.7221 25.875 38.6262 25.8606Z" fill="black"/>
<path id="Vector_19" d="M31.8463 25.8606H30.5097C30.4199 25.8633 30.3306 25.8476 30.2471 25.8143C30.1636 25.781 30.0878 25.731 30.0243 25.6672C29.9608 25.6034 29.911 25.5272 29.8779 25.4434C29.8447 25.3595 29.829 25.2698 29.8317 25.1796C29.8317 24.999 29.9031 24.8257 30.0303 24.698C30.1574 24.5703 30.3299 24.4985 30.5097 24.4985H31.8463C32.0261 24.4985 32.1986 24.5703 32.3257 24.698C32.4529 24.8257 32.5243 24.999 32.5243 25.1796C32.527 25.2698 32.5113 25.3595 32.4782 25.4434C32.4451 25.5272 32.3952 25.6034 32.3317 25.6672C32.2682 25.731 32.1924 25.781 32.1089 25.8143C32.0254 25.8476 31.9361 25.8633 31.8463 25.8606Z" fill="black"/>
<path id="Vector_20" d="M25.0857 25.8606H21.0178C20.928 25.8633 20.8386 25.8476 20.7552 25.8143C20.6717 25.781 20.5959 25.731 20.5324 25.6672C20.4689 25.6034 20.419 25.5272 20.3859 25.4434C20.3528 25.3595 20.3371 25.2698 20.3398 25.1796C20.3398 24.999 20.4112 24.8257 20.5384 24.698C20.6655 24.5703 20.838 24.4985 21.0178 24.4985H25.0857C25.2655 24.4985 25.438 24.5703 25.5651 24.698C25.6923 24.8257 25.7637 24.999 25.7637 25.1796C25.7637 25.3602 25.6923 25.5335 25.5651 25.6612C25.438 25.7889 25.2655 25.8606 25.0857 25.8606Z" fill="black"/>
<path id="Vector_21" d="M29.1537 12.2589C28.649 12.231 28.1723 12.017 27.8148 11.658C27.4574 11.2989 27.2444 10.8201 27.2166 10.3131C27.2166 9.79699 27.4206 9.30204 27.7839 8.93712C28.1472 8.5722 28.6399 8.36719 29.1537 8.36719C29.6754 8.37129 30.1759 8.57471 30.5537 8.93613C30.9315 9.29754 31.1581 9.78985 31.1877 10.3131C31.1581 10.8363 30.9315 11.3286 30.5537 11.69C30.1759 12.0514 29.6754 12.2548 29.1537 12.2589ZM29.1537 9.53471C29.0639 9.53202 28.9746 9.5478 28.8911 9.58108C28.8076 9.61435 28.7318 9.66441 28.6683 9.7282C28.6048 9.79199 28.5549 9.86814 28.5218 9.95199C28.4887 10.0358 28.473 10.1256 28.4757 10.2158C28.4757 10.3964 28.5471 10.5696 28.6743 10.6974C28.8014 10.8251 28.9739 10.8968 29.1537 10.8968C29.3335 10.8968 29.5059 10.8251 29.6331 10.6974C29.7602 10.5696 29.8317 10.3964 29.8317 10.2158C29.8317 10.0352 29.7602 9.86192 29.6331 9.7342C29.5059 9.60647 29.3335 9.53471 29.1537 9.53471Z" fill="black"/>
<path id="Vector_22" d="M29.2505 43.7239C29.6256 43.7239 29.9853 43.8735 30.2505 44.1399C30.5156 44.4063 30.6646 44.7676 30.6646 45.1444C30.6672 45.3325 30.6325 45.5194 30.5626 45.694C30.4927 45.8686 30.3889 46.0275 30.2574 46.1614C30.1258 46.2954 29.969 46.4018 29.7962 46.4744C29.6234 46.547 29.4379 46.5843 29.2505 46.5843C29.0632 46.5843 28.8777 46.547 28.7049 46.4744C28.532 46.4018 28.3753 46.2954 28.2437 46.1614C28.1121 46.0275 28.0084 45.8686 27.9385 45.694C27.8685 45.5194 27.8339 45.3325 27.8364 45.1444C27.8364 44.7676 27.9854 44.4063 28.2506 44.1399C28.5158 43.8735 28.8755 43.7239 29.2505 43.7239Z" fill="black"/>
</g>
<defs>
<clipPath id="clip0_12_441">
<rect width="61" height="64" fill="white"/>
</clipPath>
</defs>
</svg>
