<svg width="38" height="38" viewBox="0 0 38 38" fill="none" xmlns="http://www.w3.org/2000/svg">
<g id="twitter">
<circle id="Ellipse 4" cx="19" cy="19" r="19" transform="rotate(90 19 19)" fill="#3087C8"/>
<path id="ic-twitter" d="M28.876 12.806C28.1405 13.1233 27.3401 13.3517 26.5157 13.4406C27.3716 12.9321 28.0126 12.1287 28.3183 11.1812C27.5152 11.659 26.6353 11.9941 25.7177 12.1715C25.3342 11.7615 24.8704 11.4349 24.3551 11.212C23.8399 10.9891 23.2843 10.8747 22.7229 10.876C20.4515 10.876 18.6248 12.7171 18.6248 14.9765C18.6248 15.2937 18.6633 15.611 18.7258 15.9162C15.3247 15.7384 12.2914 14.1136 10.2748 11.6259C9.9074 12.2535 9.71485 12.9681 9.71722 13.6954C9.71722 15.1183 10.4407 16.3729 11.5439 17.1108C10.8938 17.0852 10.2588 16.9065 9.69078 16.5892V16.6397C9.69078 18.6323 11.0993 20.2835 12.9764 20.6633C12.624 20.7548 12.2614 20.8017 11.8972 20.8027C11.6305 20.8027 11.3781 20.7762 11.1233 20.7402C11.6425 22.365 13.1543 23.5451 14.9546 23.5836C13.5461 24.6868 11.7819 25.3358 9.86624 25.3358C9.52253 25.3358 9.20526 25.3238 8.87598 25.2853C10.6931 26.451 12.8491 27.124 15.1709 27.124C22.7084 27.124 26.833 20.8796 26.833 15.4596C26.833 15.2817 26.833 15.1038 26.8209 14.926C27.6189 14.3419 28.3184 13.6184 28.876 12.806Z" fill="white"/>
</g>
</svg>
