<svg width="57" height="54" viewBox="0 0 57 54" fill="none" xmlns="http://www.w3.org/2000/svg">
<g id="_1" clip-path="url(#clip0_12_388)">
<path id="Vector" d="M37.1613 54H17.7208C17.6222 54.0014 17.5247 53.9795 17.4365 53.936C17.3483 53.8924 17.272 53.8286 17.214 53.7499C17.1532 53.6725 17.1117 53.582 17.0928 53.4858C17.074 53.3896 17.0783 53.2904 17.1054 53.1961L20.7256 41.2101C20.7615 41.0811 20.8394 40.9674 20.9475 40.8867C21.0555 40.8059 21.1874 40.7626 21.3229 40.7635H33.5411C33.679 40.7617 33.8136 40.8043 33.9247 40.8849C34.0358 40.9655 34.1172 41.0797 34.1565 41.2101L37.7767 53.1426C37.7952 53.2189 37.7952 53.2985 37.7767 53.3748C37.7768 53.5376 37.7126 53.6939 37.5976 53.8107C37.4827 53.9274 37.3262 53.9954 37.1613 54ZM18.5716 52.7496H36.3106L33.0343 42.0317H21.8298L18.5716 52.7496Z" fill="black"/>
<path id="Vector_2" d="M43.1708 54.0001H11.5846C11.4165 54.0001 11.2554 53.9342 11.1366 53.8169C11.0178 53.6997 10.951 53.5407 10.951 53.3749C10.951 53.209 11.0178 53.05 11.1366 52.9327C11.2554 52.8155 11.4165 52.7496 11.5846 52.7496H43.1708C43.3388 52.7496 43.5 52.8155 43.6188 52.9327C43.7376 53.05 43.8043 53.209 43.8043 53.3749C43.8043 53.5407 43.7376 53.6997 43.6188 53.8169C43.5 53.9342 43.3388 54.0001 43.1708 54.0001Z" fill="black"/>
<path id="Vector_3" d="M9.15907 33.9934H0.651612C0.483588 33.9934 0.322455 33.9275 0.203645 33.8102C0.0848338 33.693 0.0180664 33.534 0.0180664 33.3681C0.0180664 33.2023 0.0848338 33.0433 0.203645 32.926C0.322455 32.8088 0.483588 32.7429 0.651612 32.7429H9.15907C9.32709 32.7429 9.48823 32.8088 9.60704 32.926C9.72585 33.0433 9.79261 33.2023 9.79261 33.3681C9.79261 33.534 9.72585 33.693 9.60704 33.8102C9.48823 33.9275 9.32709 33.9934 9.15907 33.9934Z" fill="black"/>
<path id="Vector_4" d="M55.2623 33.9934H14.4989C14.415 33.9958 14.3315 33.9813 14.2535 33.9508C14.1755 33.9202 14.1047 33.8743 14.0454 33.8157C13.986 33.7572 13.9395 33.6873 13.9085 33.6103C13.8776 33.5333 13.8629 33.4509 13.8654 33.3681C13.8654 33.2023 13.9321 33.0433 14.0509 32.926C14.1697 32.8088 14.3309 32.7429 14.4989 32.7429H55.2623C55.4304 32.7429 55.5915 32.8088 55.7103 32.926C55.8291 33.0433 55.8959 33.2023 55.8959 33.3681C55.8959 33.534 55.8291 33.693 55.7103 33.8102C55.5915 33.9275 55.4304 33.9934 55.2623 33.9934Z" fill="black"/>
<path id="Vector_5" d="M52.33 42.0139H3.65645C2.69632 42.0139 1.7755 41.6375 1.09658 40.9675C0.417665 40.2975 0.0362549 39.3888 0.0362549 38.4413V3.57261C0.0362549 2.62509 0.417665 1.71638 1.09658 1.04639C1.7755 0.376396 2.69632 0 3.65645 0H52.33C53.2901 0 54.2109 0.376396 54.8899 1.04639C55.5688 1.71638 55.9502 2.62509 55.9502 3.57261V38.4234C55.9526 38.8941 55.8607 39.3606 55.6798 39.7961C55.499 40.2316 55.2327 40.6276 54.8963 40.9612C54.5599 41.2949 54.16 41.5596 53.7196 41.7402C53.2792 41.9209 52.8069 42.0139 52.33 42.0139ZM3.65645 1.25044C3.03069 1.25042 2.43028 1.49447 1.98611 1.92946C1.54194 2.36445 1.28998 2.95509 1.2852 3.57261V38.4234C1.2852 39.0441 1.53504 39.6392 1.97973 40.0781C2.42442 40.5169 3.02756 40.7635 3.65645 40.7635H52.33C52.9589 40.7635 53.562 40.5169 54.0067 40.0781C54.4514 39.6392 54.7012 39.0441 54.7012 38.4234V3.57261C54.6964 2.95509 54.4445 2.36445 54.0003 1.92946C53.5562 1.49447 52.9557 1.25042 52.33 1.25044H3.65645Z" fill="black"/>
<path id="Vector_6" d="M12.0371 50.2487H0.633546C0.465522 50.2487 0.304361 50.1829 0.185551 50.0656C0.0667398 49.9484 0 49.7893 0 49.6235C0 49.5414 0.0163863 49.4601 0.0482244 49.3842C0.0800624 49.3084 0.126721 49.2395 0.185551 49.1814C0.24438 49.1233 0.314234 49.0773 0.391098 49.0459C0.467962 49.0145 0.550349 48.9983 0.633546 48.9983H12.0371C12.1203 48.9983 12.2027 49.0145 12.2796 49.0459C12.3565 49.0773 12.4263 49.1233 12.4851 49.1814C12.544 49.2395 12.5906 49.3084 12.6225 49.3842C12.6543 49.4601 12.6707 49.5414 12.6707 49.6235C12.6707 49.7893 12.6039 49.9484 12.4851 50.0656C12.3663 50.1829 12.2052 50.2487 12.0371 50.2487Z" fill="black"/>
<path id="Vector_7" d="M5.7018 46.4975H0.633546C0.465522 46.4975 0.304361 46.4316 0.185551 46.3144C0.0667398 46.1971 0 46.0381 0 45.8723C0 45.7065 0.0667398 45.5474 0.185551 45.4302C0.304361 45.3129 0.465522 45.2471 0.633546 45.2471H5.7018C5.86982 45.2471 6.03098 45.3129 6.14979 45.4302C6.2686 45.5474 6.33534 45.7065 6.33534 45.8723C6.33534 46.0381 6.2686 46.1971 6.14979 46.3144C6.03098 46.4316 5.86982 46.4975 5.7018 46.4975Z" fill="black"/>
<path id="Vector_8" d="M56.3665 50.2487H44.9629C44.7949 50.2487 44.6337 50.1829 44.5149 50.0656C44.3961 49.9484 44.3293 49.7893 44.3293 49.6235C44.3293 49.5414 44.3457 49.4601 44.3776 49.3842C44.4094 49.3084 44.4561 49.2395 44.5149 49.1814C44.5737 49.1233 44.6436 49.0773 44.7204 49.0459C44.7973 49.0145 44.8797 48.9983 44.9629 48.9983H56.3665C56.4497 48.9983 56.5321 49.0145 56.609 49.0459C56.6858 49.0773 56.7557 49.1233 56.8145 49.1814C56.8733 49.2395 56.92 49.3084 56.9518 49.3842C56.9836 49.4601 57 49.5414 57 49.6235C57 49.7893 56.9333 49.9484 56.8145 50.0656C56.6957 50.1829 56.5345 50.2487 56.3665 50.2487Z" fill="black"/>
<path id="Vector_9" d="M56.3665 46.4975H51.2982C51.2144 46.5 51.1309 46.4855 51.0529 46.4549C50.9749 46.4244 50.904 46.3785 50.8447 46.3199C50.7854 46.2613 50.7388 46.1914 50.7078 46.1144C50.6769 46.0375 50.6622 45.9551 50.6647 45.8723C50.6647 45.7065 50.7315 45.5474 50.8503 45.4302C50.9691 45.3129 51.1302 45.2471 51.2982 45.2471H56.3665C56.5345 45.2471 56.6957 45.3129 56.8145 45.4302C56.9333 45.5474 57 45.7065 57 45.8723C57 46.0381 56.9333 46.1971 56.8145 46.3144C56.6957 46.4316 56.5345 46.4975 56.3665 46.4975Z" fill="black"/>
<path id="Vector_10" d="M48.7641 29.0096H6.9689C6.80088 29.0096 6.63972 28.9437 6.52091 28.8265C6.4021 28.7092 6.33536 28.5502 6.33536 28.3843C6.33285 28.3016 6.34752 28.2192 6.37847 28.1422C6.40942 28.0652 6.45599 27.9953 6.51533 27.9368C6.57466 27.8782 6.6455 27.8322 6.7235 27.8017C6.8015 27.7712 6.88503 27.7567 6.9689 27.7592H48.7641C48.8473 27.7592 48.9296 27.7754 49.0065 27.8068C49.0834 27.8382 49.1532 27.8842 49.212 27.9423C49.2709 28.0003 49.3175 28.0693 49.3494 28.1451C49.3812 28.221 49.3976 28.3022 49.3976 28.3843C49.3976 28.5502 49.3308 28.7092 49.212 28.8265C49.0932 28.9437 48.9321 29.0096 48.7641 29.0096Z" fill="black"/>
<path id="Vector_11" d="M43.6957 25.2583H12.0371C11.8691 25.2583 11.708 25.1925 11.5891 25.0752C11.4703 24.958 11.4036 24.799 11.4036 24.6332C11.4011 24.5504 11.4158 24.468 11.4467 24.391C11.4777 24.3141 11.5242 24.2441 11.5836 24.1856C11.6429 24.127 11.7137 24.081 11.7917 24.0505C11.8697 24.0199 11.9532 24.0055 12.0371 24.008H43.6957C43.8638 24.008 44.0249 24.0738 44.1437 24.1911C44.2625 24.3083 44.3293 24.4674 44.3293 24.6332C44.3293 24.799 44.2625 24.958 44.1437 25.0752C44.0249 25.1925 43.8638 25.2583 43.6957 25.2583Z" fill="black"/>
<path id="Vector_12" d="M55.0994 10.2534H0.633546C0.550349 10.2534 0.467962 10.2373 0.391098 10.2058C0.314234 10.1744 0.24438 10.1284 0.185551 10.0703C0.126721 10.0123 0.0800625 9.94333 0.0482244 9.86748C0.0163863 9.79162 0 9.71032 0 9.62821C0 9.54611 0.0163863 9.46486 0.0482244 9.38901C0.0800625 9.31316 0.126721 9.24422 0.185551 9.18616C0.24438 9.12811 0.314234 9.08206 0.391098 9.05064C0.467962 9.01922 0.550349 9.00305 0.633546 9.00305H55.0994C55.1826 9.00305 55.265 9.01922 55.3418 9.05064C55.4187 9.08206 55.4885 9.12811 55.5474 9.18616C55.6062 9.24422 55.6529 9.31316 55.6847 9.38901C55.7165 9.46486 55.7329 9.54611 55.7329 9.62821C55.7329 9.71032 55.7165 9.79162 55.6847 9.86748C55.6529 9.94333 55.6062 10.0123 55.5474 10.0703C55.4885 10.1284 55.4187 10.1744 55.3418 10.2058C55.265 10.2373 55.1826 10.2534 55.0994 10.2534Z" fill="black"/>
<path id="Vector_13" d="M50.0312 6.50215H32.2922C32.1431 6.48541 32.0048 6.41702 31.902 6.30906C31.7993 6.20111 31.7387 6.06062 31.7311 5.91269C31.7311 5.83059 31.7475 5.74929 31.7793 5.67343C31.8111 5.59758 31.8578 5.52864 31.9166 5.47059C31.9755 5.41253 32.0453 5.36649 32.1222 5.33507C32.199 5.30365 32.2814 5.28748 32.3646 5.28748H50.1036C50.1868 5.28748 50.2691 5.30365 50.346 5.33507C50.4229 5.36649 50.4927 5.41253 50.5515 5.47059C50.6104 5.52864 50.657 5.59758 50.6889 5.67343C50.7207 5.74929 50.7371 5.83059 50.7371 5.91269C50.7327 5.99813 50.7106 6.08177 50.6722 6.15844C50.6338 6.23511 50.5798 6.3032 50.5136 6.35845C50.4474 6.41371 50.3705 6.45497 50.2875 6.47969C50.2045 6.50442 50.1173 6.51204 50.0312 6.50215Z" fill="black"/>
<path id="Vector_14" d="M21.1962 20.8819H19.3861L18.1372 15.916L16.9425 20.8819H15.1324L13.1775 13.3794H14.9876L16.0555 18.0417L16.1461 18.4347L17.3769 13.3794H19.006L20.2731 18.4347V18.0953L21.3772 13.3794H22.8434L21.1962 20.8819Z" fill="black"/>
<path id="Vector_15" d="M31.1699 20.8819H29.3598L28.1108 15.916L26.9161 20.8819H25.106L23.1511 13.3794H24.9612L26.0292 18.0417V18.4347L27.2601 13.3794H28.8891L30.1562 18.4347V18.0953L31.2785 13.3794H32.7266L31.1699 20.8819Z" fill="black"/>
<path id="Vector_16" d="M41.1435 20.8819H39.3334L38.0844 15.916L36.8898 20.8819H35.0797L33.1248 13.3794H34.9349L36.0028 18.0417V18.4347L37.2337 13.3794H38.8628L40.1298 18.4347V18.0953L41.2521 13.3794H42.7002L41.1435 20.8819Z" fill="black"/>
<path id="Vector_17" d="M27.3325 35.869C27.6846 35.8737 28.0207 36.0151 28.268 36.2624C28.5153 36.5098 28.6539 36.8434 28.6539 37.1909C28.6539 37.5368 28.5147 37.8684 28.2669 38.113C28.0191 38.3575 27.683 38.4949 27.3325 38.4949C26.9804 38.4949 26.6424 38.3581 26.3917 38.1141C26.141 37.87 25.9978 37.5384 25.993 37.1909C25.993 36.8403 26.1342 36.5041 26.3854 36.2562C26.6366 36.0083 26.9773 35.869 27.3325 35.869Z" fill="black"/>
<path id="Vector_18" d="M6.96883 4.62659H4.43469V7.12741H6.96883V4.62659Z" fill="black"/>
<path id="Vector_19" d="M10.7701 4.62659H8.23596V7.12741H10.7701V4.62659Z" fill="black"/>
<path id="Vector_20" d="M14.5712 4.62659H12.0371V7.12741H14.5712V4.62659Z" fill="black"/>
</g>
<defs>
<clipPath id="clip0_12_388">
<rect width="57" height="54" fill="white"/>
</clipPath>
</defs>
</svg>
